<svg xmlns="http://www.w3.org/2000/svg" viewBox="0 0 760 320" role="img">
<rect width="100%" height="100%" fill="#ffffff"/>
<text x="64" y="18" font-family="Arial, sans-serif" font-size="13" fill="#344054">q_aa6cc5 · lower test_mse wins</text>
<line x1="64" y1="274.0" x2="736" y2="274.0" stroke="#e6e8ef" stroke-width="1"/>
<text x="56" y="278.0" text-anchor="end" font-family="monospace" font-size="10" fill="#667085">0.00759</text>
<line x1="64" y1="212.5" x2="736" y2="212.5" stroke="#e6e8ef" stroke-width="1"/>
<text x="56" y="216.5" text-anchor="end" font-family="monospace" font-size="10" fill="#667085">0.322</text>
<line x1="64" y1="151.0" x2="736" y2="151.0" stroke="#e6e8ef" stroke-width="1"/>
<text x="56" y="155.0" text-anchor="end" font-family="monospace" font-size="10" fill="#667085">0.637</text>
<line x1="64" y1="89.5" x2="736" y2="89.5" stroke="#e6e8ef" stroke-width="1"/>
<text x="56" y="93.5" text-anchor="end" font-family="monospace" font-size="10" fill="#667085">0.952</text>
<line x1="64" y1="28.0" x2="736" y2="28.0" stroke="#e6e8ef" stroke-width="1"/>
<text x="56" y="32.0" text-anchor="end" font-family="monospace" font-size="10" fill="#667085">1.27</text>
<line x1="64.0" y1="28" x2="64.0" y2="274" stroke="#f1f3f7" stroke-width="1"/>
<text x="64.0" y="302" text-anchor="middle" font-family="monospace" font-size="10" fill="#667085">32</text>
<line x1="232.0" y1="28" x2="232.0" y2="274" stroke="#f1f3f7" stroke-width="1"/>
<text x="232.0" y="302" text-anchor="middle" font-family="monospace" font-size="10" fill="#667085">536</text>
<line x1="400.0" y1="28" x2="400.0" y2="274" stroke="#f1f3f7" stroke-width="1"/>
<text x="400.0" y="302" text-anchor="middle" font-family="monospace" font-size="10" fill="#667085">1040</text>
<line x1="568.0" y1="28" x2="568.0" y2="274" stroke="#f1f3f7" stroke-width="1"/>
<text x="568.0" y="302" text-anchor="middle" font-family="monospace" font-size="10" fill="#667085">1544</text>
<line x1="736.0" y1="28" x2="736.0" y2="274" stroke="#f1f3f7" stroke-width="1"/>
<text x="736.0" y="302" text-anchor="middle" font-family="monospace" font-size="10" fill="#667085">2048</text>
<line x1="64" y1="274" x2="736" y2="274" stroke="#98a2b3" stroke-width="1"/>
<line x1="64" y1="28" x2="64" y2="274" stroke="#98a2b3" stroke-width="1"/>
<polyline points="64.0,127.9 74.7,130.9 85.3,134.8 96.0,139.2 106.7,143.9 117.3,148.3 128.0,152.6 138.7,156.5 149.3,160.0 160.0,163.1 170.7,165.9 181.3,168.3 192.0,170.5 202.7,172.6 213.3,174.6 224.0,176.7 234.7,178.9 245.3,181.0 256.0,183.4 266.7,185.7 277.3,188.1 288.0,190.4 298.7,192.6 309.3,194.9 320.0,197.2 330.7,199.4 341.3,201.5 352.0,203.5 362.7,205.5 373.3,207.4 384.0,209.1 394.7,210.8 405.3,212.3 416.0,213.8 426.7,215.2 437.3,216.6 448.0,217.8 458.7,219.0 469.3,220.0 480.0,221.0 490.7,221.9 501.3,222.7 512.0,223.5 522.7,224.2 533.3,224.9 544.0,225.4 554.7,226.0 565.3,226.4 576.0,226.8 586.7,227.2 597.3,227.6 608.0,227.9 618.7,228.2 629.3,228.4 640.0,228.7 650.7,229.1 661.3,229.4 672.0,229.7 682.7,230.0 693.3,230.2 704.0,230.5 714.7,230.7 725.3,230.9 736.0,231.2" fill="none" stroke="#2f6f9f" stroke-width="2" stroke-linecap="round" stroke-linejoin="round"/>
<circle cx="736.0" cy="231.2" r="4" fill="#2f6f9f"/>
<text x="680.0" y="235.2" font-family="monospace" font-size="11" fill="#2f6f9f">A 0.227</text>
<polyline points="64.0,45.0 74.7,89.5 85.3,176.8 96.0,188.4 106.7,179.0 117.3,175.6 128.0,181.9 138.7,187.0 149.3,187.7 160.0,189.7 170.7,194.3 181.3,200.1 192.0,207.8 202.7,216.8 213.3,220.7 224.0,218.7 234.7,215.0 245.3,213.8 256.0,215.7 266.7,220.1 277.3,224.0 288.0,225.0 298.7,225.1 309.3,226.8 320.0,229.3 330.7,230.7 341.3,231.1 352.0,230.1 362.7,229.7 373.3,229.7 384.0,230.9 394.7,232.5 405.3,231.3 416.0,230.1 426.7,233.6 437.3,236.8 448.0,237.7 458.7,237.2 469.3,237.0 480.0,238.1 490.7,238.6 501.3,239.5 512.0,240.9 522.7,242.4 533.3,242.6 544.0,242.5 554.7,242.0 565.3,241.7 576.0,242.1 586.7,244.5 597.3,246.9 608.0,248.1 618.7,249.5 629.3,250.3 640.0,249.7 650.7,249.5 661.3,250.9 672.0,252.7 682.7,253.7 693.3,254.4 704.0,256.2 714.7,257.0 725.3,255.9 736.0,255.4" fill="none" stroke="#b35f2a" stroke-width="3" stroke-linecap="round" stroke-linejoin="round"/>
<circle cx="736.0" cy="255.4" r="4" fill="#b35f2a"/>
<text x="680.0" y="259.4" font-family="monospace" font-size="11" fill="#b35f2a">B 0.103</text>
<polyline points="64.0,145.1 74.7,170.5 85.3,180.2 96.0,182.7 106.7,189.0 117.3,191.1 128.0,195.5 138.7,197.1 149.3,198.9 160.0,199.0 170.7,203.7 181.3,204.6 192.0,205.6 202.7,207.6 213.3,205.8 224.0,202.3 234.7,207.2 245.3,206.2 256.0,207.0 266.7,210.1 277.3,210.3 288.0,208.6 298.7,206.3 309.3,210.9 320.0,209.8 330.7,211.2 341.3,210.7 352.0,210.4 362.7,209.8 373.3,212.9 384.0,211.8 394.7,213.1 405.3,213.2 416.0,209.8 426.7,213.3 437.3,209.2 448.0,210.7 458.7,209.8 469.3,210.5 480.0,212.5 490.7,211.2 501.3,210.8 512.0,210.3 522.7,211.9 533.3,209.6 544.0,211.2 554.7,212.7 565.3,214.0 576.0,211.7 586.7,212.9 597.3,213.8 608.0,213.3 618.7,213.0 629.3,215.5 640.0,214.3 650.7,215.8 661.3,214.7 672.0,215.4 682.7,216.1 693.3,216.5 704.0,211.6 714.7,217.5 725.3,214.5 736.0,214.5" fill="none" stroke="#3f8f5e" stroke-width="2" stroke-linecap="round" stroke-linejoin="round"/>
<circle cx="736.0" cy="214.5" r="4" fill="#3f8f5e"/>
<text x="680.0" y="218.5" font-family="monospace" font-size="11" fill="#3f8f5e">C 0.312</text>
<rect x="64" y="304" width="18" height="3" fill="#2f6f9f"/>
<text x="88" y="308" font-family="monospace" font-size="10" fill="#344054">A c_8bd954</text>
<rect x="224" y="304" width="18" height="3" fill="#b35f2a"/>
<text x="248" y="308" font-family="monospace" font-size="10" fill="#344054">B c_b467b2 winner</text>
<rect x="384" y="304" width="18" height="3" fill="#3f8f5e"/>
<text x="408" y="308" font-family="monospace" font-size="10" fill="#344054">C c_c21fb2</text>
</svg>