<svg xmlns="http://www.w3.org/2000/svg" viewBox="0 0 760 320" role="img">
<rect width="100%" height="100%" fill="#ffffff"/>
<text x="64" y="18" font-family="Arial, sans-serif" font-size="13" fill="#344054">q_fe023b · lower test_mse wins</text>
<line x1="64" y1="274.0" x2="736" y2="274.0" stroke="#e6e8ef" stroke-width="1"/>
<text x="56" y="278.0" text-anchor="end" font-family="monospace" font-size="10" fill="#667085">1e-12</text>
<line x1="64" y1="212.5" x2="736" y2="212.5" stroke="#e6e8ef" stroke-width="1"/>
<text x="56" y="216.5" text-anchor="end" font-family="monospace" font-size="10" fill="#667085">1.46</text>
<line x1="64" y1="151.0" x2="736" y2="151.0" stroke="#e6e8ef" stroke-width="1"/>
<text x="56" y="155.0" text-anchor="end" font-family="monospace" font-size="10" fill="#667085">2.92</text>
<line x1="64" y1="89.5" x2="736" y2="89.5" stroke="#e6e8ef" stroke-width="1"/>
<text x="56" y="93.5" text-anchor="end" font-family="monospace" font-size="10" fill="#667085">4.38</text>
<line x1="64" y1="28.0" x2="736" y2="28.0" stroke="#e6e8ef" stroke-width="1"/>
<text x="56" y="32.0" text-anchor="end" font-family="monospace" font-size="10" fill="#667085">5.84</text>
<line x1="64.0" y1="28" x2="64.0" y2="274" stroke="#f1f3f7" stroke-width="1"/>
<text x="64.0" y="302" text-anchor="middle" font-family="monospace" font-size="10" fill="#667085">32</text>
<line x1="232.0" y1="28" x2="232.0" y2="274" stroke="#f1f3f7" stroke-width="1"/>
<text x="232.0" y="302" text-anchor="middle" font-family="monospace" font-size="10" fill="#667085">1304</text>
<line x1="400.0" y1="28" x2="400.0" y2="274" stroke="#f1f3f7" stroke-width="1"/>
<text x="400.0" y="302" text-anchor="middle" font-family="monospace" font-size="10" fill="#667085">2576</text>
<line x1="568.0" y1="28" x2="568.0" y2="274" stroke="#f1f3f7" stroke-width="1"/>
<text x="568.0" y="302" text-anchor="middle" font-family="monospace" font-size="10" fill="#667085">3848</text>
<line x1="736.0" y1="28" x2="736.0" y2="274" stroke="#f1f3f7" stroke-width="1"/>
<text x="736.0" y="302" text-anchor="middle" font-family="monospace" font-size="10" fill="#667085">5120</text>
<line x1="64" y1="274" x2="736" y2="274" stroke="#98a2b3" stroke-width="1"/>
<line x1="64" y1="28" x2="64" y2="274" stroke="#98a2b3" stroke-width="1"/>
<polyline points="64.0,195.7 68.2,220.1 72.5,200.9 76.7,196.2 80.9,206.7 85.1,219.4 89.4,228.5 93.6,233.0 97.8,233.6 102.0,231.8 106.3,231.1 110.5,231.2 114.7,232.5 118.9,235.1 123.2,238.1 127.4,240.6 131.6,242.0 135.8,242.2 140.1,241.8 144.3,241.2 148.5,240.9 152.8,241.5 157.0,242.7 161.2,243.7 165.4,244.5 169.7,245.1 173.9,245.3 178.1,245.6 182.3,245.9 186.6,246.6 190.8,247.2 195.0,247.7 199.2,248.0 203.5,248.1 207.7,248.2 211.9,248.4 216.2,249.1 220.4,249.9 224.6,250.2 228.8,250.4 233.1,250.4 237.3,250.6 241.5,250.9 245.7,251.1 250.0,251.2 254.2,251.5 258.4,252.1 262.6,252.4 266.9,252.5 271.1,252.5 275.3,252.7 279.5,253.3 283.8,253.7 288.0,254.0 292.2,254.1 296.5,254.2 300.7,254.5 304.9,254.7 309.1,254.9 313.4,255.2 317.6,255.4 321.8,255.6 326.0,256.0 330.3,256.4 334.5,256.6 338.7,256.6 342.9,256.7 347.2,256.8 351.4,256.9 355.6,257.1 359.8,257.1 364.1,257.2 368.3,257.3 372.5,257.4 376.8,257.7 381.0,257.8 385.2,257.9 389.4,258.0 393.7,258.2 397.9,258.5 402.1,258.8 406.3,258.9 410.6,258.7 414.8,258.5 419.0,258.4 423.2,258.5 427.5,258.8 431.7,258.8 435.9,258.8 440.2,258.7 444.4,258.5 448.6,258.3 452.8,258.4 457.1,258.8 461.3,259.2 465.5,259.2 469.7,259.0 474.0,258.8 478.2,258.8 482.4,259.1 486.6,259.3 490.9,259.3 495.1,259.3 499.3,259.2 503.5,259.4 507.8,259.6 512.0,259.6 516.2,259.8 520.5,259.6 524.7,259.4 528.9,259.5 533.1,259.9 537.4,260.1 541.6,259.7 545.8,259.5 550.0,259.5 554.3,259.7 558.5,259.8 562.7,260.0 566.9,260.0 571.2,260.0 575.4,260.3 579.6,260.8 583.8,261.0 588.1,260.9 592.3,260.7 596.5,260.3 600.8,260.4 605.0,260.6 609.2,260.5 613.4,260.3 617.7,260.7 621.9,261.0 626.1,261.0 630.3,261.2 634.6,261.1 638.8,260.8 643.0,260.6 647.2,261.0 651.5,261.3 655.7,261.3 659.9,260.9 664.2,260.5 668.4,260.7 672.6,261.2 676.8,261.6 681.1,261.5 685.3,261.3 689.5,261.1 693.7,261.2 698.0,261.5 702.2,261.7 706.4,262.0 710.6,262.3 714.9,262.5 719.1,262.5 723.3,262.4 727.5,262.4 731.8,262.4 736.0,262.6" fill="none" stroke="#2f6f9f" stroke-width="3" stroke-linecap="round" stroke-linejoin="round"/>
<circle cx="736.0" cy="262.6" r="4" fill="#2f6f9f"/>
<text x="680.0" y="266.6" font-family="monospace" font-size="11" fill="#2f6f9f">A 0.271</text>
<polyline points="64.0,122.5 68.2,172.5 72.5,199.1 76.7,213.4 80.9,223.4 85.1,229.6 89.4,234.0 93.6,236.0 97.8,238.3 102.0,239.4 106.3,240.3 110.5,241.1 114.7,241.8 118.9,241.8 123.2,242.1 127.4,242.4 131.6,243.0 135.8,243.2 140.1,243.2 144.3,243.4 148.5,243.7 152.8,243.7 157.0,244.1 161.2,244.2 165.4,244.3 169.7,244.2 173.9,244.1 178.1,245.0 182.3,245.1 186.6,245.2 190.8,245.4 195.0,245.3 199.2,245.3 203.5,245.4 207.7,245.5 211.9,245.6 216.2,246.1 220.4,246.1 224.6,246.0 228.8,246.3 233.1,246.0 237.3,246.3 241.5,246.6 245.7,246.2 250.0,246.1 254.2,246.2 258.4,246.7 262.6,246.8 266.9,247.2 271.1,247.3 275.3,247.3 279.5,247.2 283.8,247.7 288.0,247.8 292.2,247.8 296.5,247.8 300.7,248.0 304.9,248.2 309.1,248.1 313.4,247.8 317.6,247.8 321.8,248.1 326.0,248.4 330.3,248.6 334.5,248.7 338.7,249.1 342.9,248.7 347.2,249.0 351.4,249.4 355.6,249.4 359.8,249.4 364.1,249.7 368.3,249.6 372.5,249.7 376.8,249.8 381.0,249.9 385.2,250.0 389.4,249.9 393.7,250.0 397.9,250.2 402.1,249.7 406.3,250.0 410.6,249.9 414.8,250.1 419.0,250.7 423.2,250.7 427.5,250.7 431.7,251.0 435.9,250.9 440.2,250.9 444.4,250.7 448.6,251.3 452.8,251.2 457.1,251.5 461.3,251.3 465.5,251.4 469.7,251.6 474.0,251.5 478.2,251.9 482.4,251.4 486.6,251.8 490.9,251.9 495.1,251.9 499.3,252.1 503.5,252.2 507.8,252.4 512.0,252.5 516.2,252.4 520.5,252.6 524.7,252.4 528.9,252.4 533.1,252.3 537.4,252.7 541.6,252.6 545.8,252.9 550.0,253.0 554.3,253.1 558.5,252.9 562.7,253.3 566.9,253.2 571.2,253.2 575.4,253.3 579.6,253.5 583.8,253.4 588.1,253.7 592.3,253.8 596.5,253.4 600.8,253.6 605.0,253.8 609.2,253.9 613.4,253.8 617.7,254.2 621.9,253.9 626.1,254.0 630.3,254.2 634.6,254.4 638.8,254.1 643.0,254.4 647.2,254.4 651.5,254.2 655.7,254.3 659.9,254.5 664.2,254.6 668.4,254.8 672.6,254.9 676.8,254.8 681.1,254.8 685.3,254.8 689.5,254.8 693.7,255.0 698.0,255.0 702.2,254.9 706.4,254.5 710.6,254.5 714.9,255.3 719.1,255.2 723.3,255.0 727.5,255.4 731.8,255.4 736.0,255.2" fill="none" stroke="#b35f2a" stroke-width="2" stroke-linecap="round" stroke-linejoin="round"/>
<circle cx="736.0" cy="255.2" r="4" fill="#b35f2a"/>
<text x="680.0" y="259.2" font-family="monospace" font-size="11" fill="#b35f2a">B 0.446</text>
<polyline points="64.0,45.4 68.2,70.8 72.5,94.4 76.7,116.4 80.9,137.0 85.1,156.1 89.4,173.3 93.6,188.2 97.8,200.6 102.0,210.6 106.3,218.8 110.5,224.6 114.7,228.3 118.9,230.4 123.2,231.8 127.4,232.4 131.6,232.8 135.8,233.4 140.1,234.1 144.3,234.6 148.5,235.2 152.8,236.0 157.0,236.5 161.2,237.1 165.4,237.5 169.7,237.7 173.9,237.9 178.1,237.9 182.3,237.9 186.6,238.0 190.8,238.1 195.0,238.4 199.2,238.6 203.5,238.9 207.7,239.2 211.9,239.5 216.2,239.7 220.4,239.8 224.6,239.9 228.8,240.0 233.1,240.1 237.3,240.3 241.5,240.6 245.7,240.9 250.0,241.2 254.2,241.4 258.4,241.4 262.6,241.3 266.9,241.2 271.1,241.2 275.3,241.2 279.5,241.2 283.8,241.2 288.0,241.2 292.2,241.3 296.5,241.4 300.7,241.4 304.9,241.4 309.1,241.4 313.4,241.4 317.6,241.4 321.8,241.5 326.0,241.5 330.3,241.5 334.5,241.6 338.7,241.7 342.9,241.8 347.2,241.9 351.4,242.0 355.6,242.0 359.8,242.0 364.1,242.0 368.3,242.0 372.5,242.0 376.8,242.0 381.0,242.0 385.2,242.0 389.4,242.0 393.7,241.9 397.9,241.9 402.1,241.9 406.3,241.9 410.6,241.8 414.8,241.7 419.0,241.7 423.2,241.7 427.5,241.7 431.7,241.8 435.9,241.8 440.2,241.9 444.4,242.0 448.6,242.1 452.8,242.1 457.1,242.1 461.3,242.0 465.5,242.0 469.7,242.0 474.0,241.9 478.2,242.0 482.4,242.0 486.6,242.0 490.9,241.9 495.1,241.8 499.3,241.8 503.5,241.8 507.8,241.8 512.0,241.8 516.2,241.8 520.5,241.9 524.7,241.8 528.9,241.7 533.1,241.6 537.4,241.6 541.6,241.6 545.8,241.7 550.0,241.9 554.3,242.0 558.5,242.1 562.7,242.2 566.9,242.3 571.2,242.2 575.4,242.2 579.6,242.1 583.8,242.0 588.1,242.0 592.3,242.0 596.5,242.0 600.8,242.1 605.0,242.1 609.2,242.2 613.4,242.2 617.7,242.2 621.9,242.2 626.1,242.2 630.3,242.1 634.6,242.1 638.8,242.2 643.0,242.3 647.2,242.3 651.5,242.4 655.7,242.5 659.9,242.5 664.2,242.5 668.4,242.5 672.6,242.5 676.8,242.3 681.1,242.2 685.3,242.2 689.5,242.2 693.7,242.3 698.0,242.3 702.2,242.3 706.4,242.3 710.6,242.2 714.9,242.2 719.1,242.3 723.3,242.4 727.5,242.5 731.8,242.6 736.0,242.6" fill="none" stroke="#3f8f5e" stroke-width="2" stroke-linecap="round" stroke-linejoin="round"/>
<circle cx="736.0" cy="242.6" r="4" fill="#3f8f5e"/>
<text x="680.0" y="246.6" font-family="monospace" font-size="11" fill="#3f8f5e">C 0.747</text>
<rect x="64" y="304" width="18" height="3" fill="#2f6f9f"/>
<text x="88" y="308" font-family="monospace" font-size="10" fill="#344054">A c_10b5d3 winner</text>
<rect x="224" y="304" width="18" height="3" fill="#b35f2a"/>
<text x="248" y="308" font-family="monospace" font-size="10" fill="#344054">B c_cfa531</text>
<rect x="384" y="304" width="18" height="3" fill="#3f8f5e"/>
<text x="408" y="308" font-family="monospace" font-size="10" fill="#344054">C c_012583</text>
</svg>