<svg xmlns="http://www.w3.org/2000/svg" viewBox="0 0 760 320" role="img">
<rect width="100%" height="100%" fill="#ffffff"/>
<text x="64" y="18" font-family="Arial, sans-serif" font-size="13" fill="#344054">q_c1c26a · lower test_mse wins</text>
<line x1="64" y1="274.0" x2="736" y2="274.0" stroke="#e6e8ef" stroke-width="1"/>
<text x="56" y="278.0" text-anchor="end" font-family="monospace" font-size="10" fill="#667085">1e-12</text>
<line x1="64" y1="212.5" x2="736" y2="212.5" stroke="#e6e8ef" stroke-width="1"/>
<text x="56" y="216.5" text-anchor="end" font-family="monospace" font-size="10" fill="#667085">0.328</text>
<line x1="64" y1="151.0" x2="736" y2="151.0" stroke="#e6e8ef" stroke-width="1"/>
<text x="56" y="155.0" text-anchor="end" font-family="monospace" font-size="10" fill="#667085">0.657</text>
<line x1="64" y1="89.5" x2="736" y2="89.5" stroke="#e6e8ef" stroke-width="1"/>
<text x="56" y="93.5" text-anchor="end" font-family="monospace" font-size="10" fill="#667085">0.985</text>
<line x1="64" y1="28.0" x2="736" y2="28.0" stroke="#e6e8ef" stroke-width="1"/>
<text x="56" y="32.0" text-anchor="end" font-family="monospace" font-size="10" fill="#667085">1.31</text>
<line x1="64.0" y1="28" x2="64.0" y2="274" stroke="#f1f3f7" stroke-width="1"/>
<text x="64.0" y="302" text-anchor="middle" font-family="monospace" font-size="10" fill="#667085">32</text>
<line x1="232.0" y1="28" x2="232.0" y2="274" stroke="#f1f3f7" stroke-width="1"/>
<text x="232.0" y="302" text-anchor="middle" font-family="monospace" font-size="10" fill="#667085">536</text>
<line x1="400.0" y1="28" x2="400.0" y2="274" stroke="#f1f3f7" stroke-width="1"/>
<text x="400.0" y="302" text-anchor="middle" font-family="monospace" font-size="10" fill="#667085">1040</text>
<line x1="568.0" y1="28" x2="568.0" y2="274" stroke="#f1f3f7" stroke-width="1"/>
<text x="568.0" y="302" text-anchor="middle" font-family="monospace" font-size="10" fill="#667085">1544</text>
<line x1="736.0" y1="28" x2="736.0" y2="274" stroke="#f1f3f7" stroke-width="1"/>
<text x="736.0" y="302" text-anchor="middle" font-family="monospace" font-size="10" fill="#667085">2048</text>
<line x1="64" y1="274" x2="736" y2="274" stroke="#98a2b3" stroke-width="1"/>
<line x1="64" y1="28" x2="64" y2="274" stroke="#98a2b3" stroke-width="1"/>
<polyline points="64.0,147.5 74.7,152.8 85.3,158.2 96.0,163.4 106.7,168.7 117.3,174.4 128.0,181.7 138.7,189.2 149.3,199.3 160.0,208.0 170.7,217.3 181.3,225.7 192.0,230.7 202.7,226.3 213.3,239.0 224.0,237.4 234.7,245.0 245.3,246.1 256.0,246.0 266.7,249.4 277.3,248.3 288.0,249.5 298.7,247.4 309.3,247.8 320.0,251.1 330.7,250.1 341.3,251.2 352.0,252.6 362.7,252.7 373.3,254.8 384.0,257.4 394.7,258.1 405.3,257.2 416.0,258.0 426.7,258.5 437.3,258.7 448.0,258.9 458.7,259.8 469.3,259.9 480.0,259.0 490.7,258.5 501.3,259.5 512.0,260.2 522.7,262.2 533.3,263.4 544.0,264.0 554.7,263.7 565.3,264.3 576.0,264.6 586.7,264.7 597.3,264.6 608.0,263.8 618.7,264.5 629.3,265.3 640.0,266.1 650.7,266.6 661.3,267.3 672.0,267.7 682.7,267.2 693.3,268.2 704.0,268.0 714.7,269.1 725.3,267.9 736.0,268.3" fill="none" stroke="#2f6f9f" stroke-width="3" stroke-linecap="round" stroke-linejoin="round"/>
<circle cx="736.0" cy="268.3" r="4" fill="#2f6f9f"/>
<text x="680.0" y="272.3" font-family="monospace" font-size="11" fill="#2f6f9f">A 0.0306</text>
<polyline points="64.0,66.0 74.7,53.1 85.3,45.9 96.0,135.0 106.7,146.5 117.3,148.2 128.0,152.1 138.7,148.7 149.3,152.1 160.0,171.4 170.7,175.9 181.3,186.7 192.0,189.4 202.7,203.7 213.3,203.6 224.0,201.8 234.7,210.3 245.3,209.7 256.0,220.0 266.7,219.4 277.3,222.2 288.0,226.9 298.7,228.3 309.3,229.7 320.0,229.7 330.7,232.9 341.3,234.7 352.0,235.6 362.7,238.0 373.3,238.0 384.0,240.4 394.7,243.0 405.3,243.0 416.0,245.8 426.7,244.5 437.3,248.9 448.0,251.8 458.7,250.0 469.3,251.8 480.0,251.6 490.7,252.1 501.3,252.1 512.0,251.9 522.7,251.5 533.3,251.7 544.0,252.2 554.7,251.1 565.3,251.5 576.0,252.8 586.7,252.7 597.3,252.3 608.0,252.9 618.7,253.3 629.3,253.7 640.0,253.7 650.7,254.2 661.3,255.3 672.0,256.0 682.7,256.0 693.3,255.5 704.0,255.8 714.7,255.8 725.3,255.2 736.0,254.8" fill="none" stroke="#b35f2a" stroke-width="2" stroke-linecap="round" stroke-linejoin="round"/>
<circle cx="736.0" cy="254.8" r="4" fill="#b35f2a"/>
<text x="680.0" y="258.8" font-family="monospace" font-size="11" fill="#b35f2a">B 0.102</text>
<polyline points="64.0,146.2 74.7,146.6 85.3,147.0 96.0,147.3 106.7,147.7 117.3,148.0 128.0,148.4 138.7,148.7 149.3,149.1 160.0,149.4 170.7,149.7 181.3,150.1 192.0,150.4 202.7,150.7 213.3,151.1 224.0,151.4 234.7,151.7 245.3,152.0 256.0,152.4 266.7,152.7 277.3,153.0 288.0,153.3 298.7,153.6 309.3,153.9 320.0,154.2 330.7,154.5 341.3,154.8 352.0,155.1 362.7,155.4 373.3,155.7 384.0,156.0 394.7,156.2 405.3,156.5 416.0,156.8 426.7,157.1 437.3,157.3 448.0,157.6 458.7,157.9 469.3,158.2 480.0,158.4 490.7,158.7 501.3,159.0 512.0,159.2 522.7,159.5 533.3,159.7 544.0,160.0 554.7,160.2 565.3,160.5 576.0,160.7 586.7,161.0 597.3,161.2 608.0,161.5 618.7,161.7 629.3,161.9 640.0,162.2 650.7,162.4 661.3,162.6 672.0,162.9 682.7,163.1 693.3,163.3 704.0,163.6 714.7,163.8 725.3,164.0 736.0,164.2" fill="none" stroke="#3f8f5e" stroke-width="2" stroke-linecap="round" stroke-linejoin="round"/>
<circle cx="736.0" cy="164.2" r="4" fill="#3f8f5e"/>
<text x="680.0" y="168.2" font-family="monospace" font-size="11" fill="#3f8f5e">C 0.586</text>
<rect x="64" y="304" width="18" height="3" fill="#2f6f9f"/>
<text x="88" y="308" font-family="monospace" font-size="10" fill="#344054">A c_8fca47 winner</text>
<rect x="224" y="304" width="18" height="3" fill="#b35f2a"/>
<text x="248" y="308" font-family="monospace" font-size="10" fill="#344054">B c_f1be6a</text>
<rect x="384" y="304" width="18" height="3" fill="#3f8f5e"/>
<text x="408" y="308" font-family="monospace" font-size="10" fill="#344054">C c_a0ef35</text>
</svg>