<svg xmlns="http://www.w3.org/2000/svg" viewBox="0 0 760 320" role="img">
<rect width="100%" height="100%" fill="#ffffff"/>
<text x="64" y="18" font-family="Arial, sans-serif" font-size="13" fill="#344054">q_79e34e · lower test_mse wins</text>
<line x1="64" y1="274.0" x2="736" y2="274.0" stroke="#e6e8ef" stroke-width="1"/>
<text x="56" y="278.0" text-anchor="end" font-family="monospace" font-size="10" fill="#667085">1e-12</text>
<line x1="64" y1="212.5" x2="736" y2="212.5" stroke="#e6e8ef" stroke-width="1"/>
<text x="56" y="216.5" text-anchor="end" font-family="monospace" font-size="10" fill="#667085">758</text>
<line x1="64" y1="151.0" x2="736" y2="151.0" stroke="#e6e8ef" stroke-width="1"/>
<text x="56" y="155.0" text-anchor="end" font-family="monospace" font-size="10" fill="#667085">1.52e+03</text>
<line x1="64" y1="89.5" x2="736" y2="89.5" stroke="#e6e8ef" stroke-width="1"/>
<text x="56" y="93.5" text-anchor="end" font-family="monospace" font-size="10" fill="#667085">2.27e+03</text>
<line x1="64" y1="28.0" x2="736" y2="28.0" stroke="#e6e8ef" stroke-width="1"/>
<text x="56" y="32.0" text-anchor="end" font-family="monospace" font-size="10" fill="#667085">3.03e+03</text>
<line x1="64.0" y1="28" x2="64.0" y2="274" stroke="#f1f3f7" stroke-width="1"/>
<text x="64.0" y="302" text-anchor="middle" font-family="monospace" font-size="10" fill="#667085">32</text>
<line x1="232.0" y1="28" x2="232.0" y2="274" stroke="#f1f3f7" stroke-width="1"/>
<text x="232.0" y="302" text-anchor="middle" font-family="monospace" font-size="10" fill="#667085">536</text>
<line x1="400.0" y1="28" x2="400.0" y2="274" stroke="#f1f3f7" stroke-width="1"/>
<text x="400.0" y="302" text-anchor="middle" font-family="monospace" font-size="10" fill="#667085">1040</text>
<line x1="568.0" y1="28" x2="568.0" y2="274" stroke="#f1f3f7" stroke-width="1"/>
<text x="568.0" y="302" text-anchor="middle" font-family="monospace" font-size="10" fill="#667085">1544</text>
<line x1="736.0" y1="28" x2="736.0" y2="274" stroke="#f1f3f7" stroke-width="1"/>
<text x="736.0" y="302" text-anchor="middle" font-family="monospace" font-size="10" fill="#667085">2048</text>
<line x1="64" y1="274" x2="736" y2="274" stroke="#98a2b3" stroke-width="1"/>
<line x1="64" y1="28" x2="64" y2="274" stroke="#98a2b3" stroke-width="1"/>
<polyline points="64.0,274.0 74.7,274.0 85.3,274.0 96.0,274.0 106.7,274.0 117.3,274.0 128.0,274.0 138.7,274.0 149.3,274.0 160.0,274.0 170.7,274.0 181.3,274.0 192.0,274.0 202.7,274.0 213.3,274.0 224.0,274.0 234.7,274.0 245.3,274.0 256.0,274.0 266.7,274.0 277.3,274.0 288.0,274.0 298.7,274.0 309.3,274.0 320.0,274.0 330.7,274.0 341.3,274.0 352.0,274.0 362.7,274.0 373.3,274.0 384.0,274.0 394.7,274.0 405.3,274.0 416.0,274.0 426.7,274.0 437.3,274.0 448.0,274.0 458.7,274.0 469.3,274.0 480.0,274.0 490.7,274.0 501.3,274.0 512.0,274.0 522.7,274.0 533.3,274.0 544.0,274.0 554.7,274.0 565.3,274.0 576.0,274.0 586.7,274.0 597.3,274.0 608.0,274.0 618.7,274.0 629.3,274.0 640.0,274.0 650.7,274.0 661.3,274.0 672.0,274.0 682.7,274.0 693.3,274.0 704.0,274.0 714.7,274.0 725.3,274.0 736.0,274.0" fill="none" stroke="#2f6f9f" stroke-width="2" stroke-linecap="round" stroke-linejoin="round"/>
<circle cx="736.0" cy="274.0" r="4" fill="#2f6f9f"/>
<text x="680.0" y="278.0" font-family="monospace" font-size="11" fill="#2f6f9f">A 0.144</text>
<polyline points="64.0,46.2 74.7,249.6 85.3,271.0 96.0,271.9 106.7,271.2 117.3,271.4 128.0,272.9 138.7,272.1 149.3,273.2 160.0,272.8 170.7,273.4 181.3,273.3 192.0,273.6 202.7,273.4 213.3,273.7 224.0,273.6 234.7,273.8 245.3,273.7 256.0,273.8 266.7,273.9 277.3,273.8 288.0,273.9 298.7,273.9 309.3,273.8 320.0,273.9 330.7,273.9 341.3,273.9 352.0,273.9 362.7,273.9 373.3,273.9 384.0,273.9 394.7,273.9 405.3,273.9 416.0,273.9 426.7,273.9 437.3,274.0 448.0,273.9 458.7,274.0 469.3,273.9 480.0,274.0 490.7,274.0 501.3,274.0 512.0,274.0 522.7,274.0 533.3,273.9 544.0,274.0 554.7,274.0 565.3,274.0 576.0,274.0 586.7,274.0 597.3,274.0 608.0,274.0 618.7,274.0 629.3,274.0 640.0,274.0 650.7,274.0 661.3,274.0 672.0,274.0 682.7,274.0 693.3,274.0 704.0,274.0 714.7,274.0 725.3,274.0 736.0,274.0" fill="none" stroke="#b35f2a" stroke-width="2" stroke-linecap="round" stroke-linejoin="round"/>
<circle cx="736.0" cy="274.0" r="4" fill="#b35f2a"/>
<text x="680.0" y="278.0" font-family="monospace" font-size="11" fill="#b35f2a">B 0.316</text>
<polyline points="64.0,274.0 74.7,274.0 85.3,274.0 96.0,274.0 106.7,274.0 117.3,274.0 128.0,274.0 138.7,274.0 149.3,274.0 160.0,274.0 170.7,274.0 181.3,274.0 192.0,274.0 202.7,274.0 213.3,274.0 224.0,274.0 234.7,274.0 245.3,274.0 256.0,274.0 266.7,274.0 277.3,274.0 288.0,274.0 298.7,274.0 309.3,274.0 320.0,274.0 330.7,274.0 341.3,274.0 352.0,274.0 362.7,274.0 373.3,274.0 384.0,274.0 394.7,274.0 405.3,274.0 416.0,274.0 426.7,274.0 437.3,274.0 448.0,274.0 458.7,274.0 469.3,274.0 480.0,274.0 490.7,274.0 501.3,274.0 512.0,274.0 522.7,274.0 533.3,274.0 544.0,274.0 554.7,274.0 565.3,274.0 576.0,274.0 586.7,274.0 597.3,274.0 608.0,274.0 618.7,274.0 629.3,274.0 640.0,274.0 650.7,274.0 661.3,274.0 672.0,274.0 682.7,274.0 693.3,274.0 704.0,274.0 714.7,274.0 725.3,274.0 736.0,274.0" fill="none" stroke="#3f8f5e" stroke-width="3" stroke-linecap="round" stroke-linejoin="round"/>
<circle cx="736.0" cy="274.0" r="4" fill="#3f8f5e"/>
<text x="680.0" y="278.0" font-family="monospace" font-size="11" fill="#3f8f5e">C 0.032</text>
<rect x="64" y="304" width="18" height="3" fill="#2f6f9f"/>
<text x="88" y="308" font-family="monospace" font-size="10" fill="#344054">A c_9615f0</text>
<rect x="224" y="304" width="18" height="3" fill="#b35f2a"/>
<text x="248" y="308" font-family="monospace" font-size="10" fill="#344054">B c_480e2e</text>
<rect x="384" y="304" width="18" height="3" fill="#3f8f5e"/>
<text x="408" y="308" font-family="monospace" font-size="10" fill="#344054">C c_835f12 winner</text>
</svg>