<svg xmlns="http://www.w3.org/2000/svg" viewBox="0 0 760 320" role="img">
<rect width="100%" height="100%" fill="#ffffff"/>
<text x="64" y="18" font-family="Arial, sans-serif" font-size="13" fill="#344054">q_cc87ba · lower test_mse wins</text>
<line x1="64" y1="274.0" x2="736" y2="274.0" stroke="#e6e8ef" stroke-width="1"/>
<text x="56" y="278.0" text-anchor="end" font-family="monospace" font-size="10" fill="#667085">1e-12</text>
<line x1="64" y1="212.5" x2="736" y2="212.5" stroke="#e6e8ef" stroke-width="1"/>
<text x="56" y="216.5" text-anchor="end" font-family="monospace" font-size="10" fill="#667085">0.634</text>
<line x1="64" y1="151.0" x2="736" y2="151.0" stroke="#e6e8ef" stroke-width="1"/>
<text x="56" y="155.0" text-anchor="end" font-family="monospace" font-size="10" fill="#667085">1.27</text>
<line x1="64" y1="89.5" x2="736" y2="89.5" stroke="#e6e8ef" stroke-width="1"/>
<text x="56" y="93.5" text-anchor="end" font-family="monospace" font-size="10" fill="#667085">1.9</text>
<line x1="64" y1="28.0" x2="736" y2="28.0" stroke="#e6e8ef" stroke-width="1"/>
<text x="56" y="32.0" text-anchor="end" font-family="monospace" font-size="10" fill="#667085">2.54</text>
<line x1="64.0" y1="28" x2="64.0" y2="274" stroke="#f1f3f7" stroke-width="1"/>
<text x="64.0" y="302" text-anchor="middle" font-family="monospace" font-size="10" fill="#667085">32</text>
<line x1="232.0" y1="28" x2="232.0" y2="274" stroke="#f1f3f7" stroke-width="1"/>
<text x="232.0" y="302" text-anchor="middle" font-family="monospace" font-size="10" fill="#667085">536</text>
<line x1="400.0" y1="28" x2="400.0" y2="274" stroke="#f1f3f7" stroke-width="1"/>
<text x="400.0" y="302" text-anchor="middle" font-family="monospace" font-size="10" fill="#667085">1040</text>
<line x1="568.0" y1="28" x2="568.0" y2="274" stroke="#f1f3f7" stroke-width="1"/>
<text x="568.0" y="302" text-anchor="middle" font-family="monospace" font-size="10" fill="#667085">1544</text>
<line x1="736.0" y1="28" x2="736.0" y2="274" stroke="#f1f3f7" stroke-width="1"/>
<text x="736.0" y="302" text-anchor="middle" font-family="monospace" font-size="10" fill="#667085">2048</text>
<line x1="64" y1="274" x2="736" y2="274" stroke="#98a2b3" stroke-width="1"/>
<line x1="64" y1="28" x2="64" y2="274" stroke="#98a2b3" stroke-width="1"/>
<polyline points="64.0,207.3 74.7,216.3 85.3,220.5 96.0,223.1 106.7,225.7 117.3,228.6 128.0,232.2 138.7,235.5 149.3,239.1 160.0,241.8 170.7,243.3 181.3,243.5 192.0,242.6 202.7,242.3 213.3,242.1 224.0,242.2 234.7,241.7 245.3,240.4 256.0,238.9 266.7,237.4 277.3,236.7 288.0,237.2 298.7,238.5 309.3,239.7 320.0,240.5 330.7,241.1 341.3,241.5 352.0,241.8 362.7,242.3 373.3,242.7 384.0,242.8 394.7,242.7 405.3,242.9 416.0,243.4 426.7,244.4 437.3,245.6 448.0,246.6 458.7,247.2 469.3,247.7 480.0,247.9 490.7,248.0 501.3,247.9 512.0,247.7 522.7,247.3 533.3,247.0 544.0,246.8 554.7,246.9 565.3,247.4 576.0,247.7 586.7,248.0 597.3,248.0 608.0,248.1 618.7,248.2 629.3,248.3 640.0,248.0 650.7,247.6 661.3,247.4 672.0,247.5 682.7,248.0 693.3,248.4 704.0,248.7 714.7,248.8 725.3,248.9 736.0,249.1" fill="none" stroke="#2f6f9f" stroke-width="2" stroke-linecap="round" stroke-linejoin="round"/>
<circle cx="736.0" cy="249.1" r="4" fill="#2f6f9f"/>
<text x="680.0" y="253.1" font-family="monospace" font-size="11" fill="#2f6f9f">A 0.256</text>
<polyline points="64.0,197.1 74.7,182.1 85.3,196.3 96.0,216.4 106.7,218.3 117.3,219.5 128.0,228.9 138.7,236.6 149.3,235.3 160.0,236.9 170.7,241.3 181.3,237.1 192.0,236.7 202.7,238.7 213.3,236.2 224.0,237.8 234.7,242.6 245.3,241.8 256.0,239.1 266.7,242.6 277.3,244.6 288.0,242.6 298.7,243.0 309.3,245.2 320.0,245.7 330.7,245.3 341.3,245.5 352.0,246.2 362.7,247.3 373.3,248.4 384.0,249.3 394.7,248.7 405.3,247.1 416.0,247.3 426.7,247.6 437.3,249.4 448.0,250.1 458.7,248.9 469.3,249.8 480.0,250.6 490.7,250.9 501.3,249.1 512.0,248.8 522.7,250.8 533.3,251.1 544.0,251.0 554.7,252.9 565.3,253.6 576.0,252.5 586.7,252.2 597.3,253.8 608.0,253.4 618.7,251.9 629.3,252.9 640.0,255.1 650.7,255.0 661.3,253.4 672.0,253.6 682.7,254.7 693.3,253.8 704.0,253.1 714.7,254.0 725.3,255.0 736.0,256.3" fill="none" stroke="#b35f2a" stroke-width="2" stroke-linecap="round" stroke-linejoin="round"/>
<circle cx="736.0" cy="256.3" r="4" fill="#b35f2a"/>
<text x="680.0" y="260.3" font-family="monospace" font-size="11" fill="#b35f2a">B 0.183</text>
<polyline points="64.0,144.0 74.7,45.9 85.3,218.3 96.0,227.1 106.7,234.5 117.3,239.3 128.0,237.2 138.7,242.1 149.3,247.1 160.0,249.2 170.7,249.5 181.3,250.8 192.0,255.2 202.7,256.3 213.3,254.7 224.0,256.5 234.7,259.6 245.3,260.7 256.0,260.8 266.7,261.9 277.3,261.9 288.0,263.2 298.7,263.4 309.3,263.4 320.0,263.7 330.7,264.0 341.3,264.4 352.0,264.1 362.7,264.4 373.3,265.4 384.0,264.8 394.7,264.7 405.3,265.8 416.0,266.2 426.7,266.6 437.3,266.5 448.0,266.8 458.7,267.3 469.3,267.0 480.0,267.5 490.7,267.2 501.3,267.1 512.0,266.7 522.7,267.9 533.3,268.0 544.0,268.2 554.7,267.7 565.3,268.1 576.0,268.6 586.7,267.3 597.3,268.0 608.0,269.0 618.7,268.4 629.3,268.9 640.0,269.1 650.7,269.5 661.3,269.6 672.0,269.5 682.7,269.6 693.3,269.4 704.0,268.7 714.7,269.8 725.3,269.5 736.0,269.8" fill="none" stroke="#3f8f5e" stroke-width="3" stroke-linecap="round" stroke-linejoin="round"/>
<circle cx="736.0" cy="269.8" r="4" fill="#3f8f5e"/>
<text x="680.0" y="273.8" font-family="monospace" font-size="11" fill="#3f8f5e">C 0.0428</text>
<rect x="64" y="304" width="18" height="3" fill="#2f6f9f"/>
<text x="88" y="308" font-family="monospace" font-size="10" fill="#344054">A c_84ff13</text>
<rect x="224" y="304" width="18" height="3" fill="#b35f2a"/>
<text x="248" y="308" font-family="monospace" font-size="10" fill="#344054">B c_e4cf91</text>
<rect x="384" y="304" width="18" height="3" fill="#3f8f5e"/>
<text x="408" y="308" font-family="monospace" font-size="10" fill="#344054">C c_701404 winner</text>
</svg>