<svg xmlns="http://www.w3.org/2000/svg" viewBox="0 0 760 320" role="img">
<rect width="100%" height="100%" fill="#ffffff"/>
<text x="64" y="18" font-family="Arial, sans-serif" font-size="13" fill="#344054">q_d0fad7 · lower test_mse wins</text>
<line x1="64" y1="274.0" x2="736" y2="274.0" stroke="#e6e8ef" stroke-width="1"/>
<text x="56" y="278.0" text-anchor="end" font-family="monospace" font-size="10" fill="#667085">1e-12</text>
<line x1="64" y1="212.5" x2="736" y2="212.5" stroke="#e6e8ef" stroke-width="1"/>
<text x="56" y="216.5" text-anchor="end" font-family="monospace" font-size="10" fill="#667085">0.991</text>
<line x1="64" y1="151.0" x2="736" y2="151.0" stroke="#e6e8ef" stroke-width="1"/>
<text x="56" y="155.0" text-anchor="end" font-family="monospace" font-size="10" fill="#667085">1.98</text>
<line x1="64" y1="89.5" x2="736" y2="89.5" stroke="#e6e8ef" stroke-width="1"/>
<text x="56" y="93.5" text-anchor="end" font-family="monospace" font-size="10" fill="#667085">2.97</text>
<line x1="64" y1="28.0" x2="736" y2="28.0" stroke="#e6e8ef" stroke-width="1"/>
<text x="56" y="32.0" text-anchor="end" font-family="monospace" font-size="10" fill="#667085">3.97</text>
<line x1="64.0" y1="28" x2="64.0" y2="274" stroke="#f1f3f7" stroke-width="1"/>
<text x="64.0" y="302" text-anchor="middle" font-family="monospace" font-size="10" fill="#667085">32</text>
<line x1="232.0" y1="28" x2="232.0" y2="274" stroke="#f1f3f7" stroke-width="1"/>
<text x="232.0" y="302" text-anchor="middle" font-family="monospace" font-size="10" fill="#667085">536</text>
<line x1="400.0" y1="28" x2="400.0" y2="274" stroke="#f1f3f7" stroke-width="1"/>
<text x="400.0" y="302" text-anchor="middle" font-family="monospace" font-size="10" fill="#667085">1040</text>
<line x1="568.0" y1="28" x2="568.0" y2="274" stroke="#f1f3f7" stroke-width="1"/>
<text x="568.0" y="302" text-anchor="middle" font-family="monospace" font-size="10" fill="#667085">1544</text>
<line x1="736.0" y1="28" x2="736.0" y2="274" stroke="#f1f3f7" stroke-width="1"/>
<text x="736.0" y="302" text-anchor="middle" font-family="monospace" font-size="10" fill="#667085">2048</text>
<line x1="64" y1="274" x2="736" y2="274" stroke="#98a2b3" stroke-width="1"/>
<line x1="64" y1="28" x2="64" y2="274" stroke="#98a2b3" stroke-width="1"/>
<polyline points="64.0,215.1 74.7,224.5 85.3,229.5 96.0,232.7 106.7,235.7 117.3,238.4 128.0,240.2 138.7,241.0 149.3,241.4 160.0,241.8 170.7,242.4 181.3,243.3 192.0,244.3 202.7,245.2 213.3,245.8 224.0,246.2 234.7,247.1 245.3,247.9 256.0,248.7 266.7,249.3 277.3,249.5 288.0,249.6 298.7,249.5 309.3,249.4 320.0,249.8 330.7,250.4 341.3,250.8 352.0,250.9 362.7,250.6 373.3,250.1 384.0,249.6 394.7,249.6 405.3,250.2 416.0,251.4 426.7,252.4 437.3,252.9 448.0,253.1 458.7,253.1 469.3,253.4 480.0,253.5 490.7,253.5 501.3,253.3 512.0,253.2 522.7,253.1 533.3,253.1 544.0,253.2 554.7,253.4 565.3,253.7 576.0,254.0 586.7,254.5 597.3,255.0 608.0,255.2 618.7,255.2 629.3,255.2 640.0,255.2 650.7,255.2 661.3,255.2 672.0,255.2 682.7,255.3 693.3,255.5 704.0,255.6 714.7,255.9 725.3,256.2 736.0,256.5" fill="none" stroke="#2f6f9f" stroke-width="2" stroke-linecap="round" stroke-linejoin="round"/>
<circle cx="736.0" cy="256.5" r="4" fill="#2f6f9f"/>
<text x="680.0" y="260.5" font-family="monospace" font-size="11" fill="#2f6f9f">A 0.282</text>
<polyline points="64.0,45.8 74.7,239.0 85.3,203.5 96.0,197.6 106.7,225.0 117.3,243.1 128.0,244.8 138.7,237.5 149.3,231.4 160.0,232.3 170.7,239.2 181.3,247.0 192.0,252.0 202.7,253.3 213.3,252.7 224.0,252.4 234.7,253.1 245.3,254.1 256.0,254.9 266.7,254.7 277.3,253.6 288.0,252.6 298.7,252.1 309.3,252.3 320.0,253.2 330.7,254.1 341.3,255.2 352.0,255.9 362.7,256.3 373.3,256.7 384.0,257.2 394.7,257.8 405.3,258.2 416.0,258.3 426.7,258.2 437.3,257.9 448.0,257.6 458.7,257.3 469.3,257.1 480.0,257.3 490.7,257.8 501.3,258.3 512.0,258.7 522.7,259.0 533.3,259.1 544.0,259.3 554.7,259.6 565.3,259.8 576.0,259.9 586.7,259.8 597.3,259.5 608.0,259.3 618.7,259.3 629.3,259.5 640.0,259.8 650.7,260.1 661.3,260.4 672.0,260.7 682.7,260.8 693.3,261.0 704.0,261.1 714.7,261.2 725.3,261.2 736.0,261.1" fill="none" stroke="#b35f2a" stroke-width="2" stroke-linecap="round" stroke-linejoin="round"/>
<circle cx="736.0" cy="261.1" r="4" fill="#b35f2a"/>
<text x="680.0" y="265.1" font-family="monospace" font-size="11" fill="#b35f2a">B 0.209</text>
<polyline points="64.0,200.8 74.7,214.9 85.3,242.7 96.0,246.4 106.7,243.4 117.3,242.3 128.0,244.3 138.7,245.9 149.3,246.1 160.0,246.7 170.7,248.2 181.3,250.1 192.0,252.5 202.7,255.4 213.3,256.6 224.0,256.0 234.7,254.8 245.3,254.4 256.0,255.0 266.7,256.4 277.3,257.6 288.0,258.0 298.7,258.0 309.3,258.6 320.0,259.3 330.7,259.8 341.3,259.9 352.0,259.6 362.7,259.5 373.3,259.4 384.0,259.9 394.7,260.4 405.3,260.0 416.0,259.6 426.7,260.7 437.3,261.7 448.0,262.0 458.7,261.8 469.3,261.8 480.0,262.1 490.7,262.3 501.3,262.6 512.0,263.0 522.7,263.5 533.3,263.6 544.0,263.5 554.7,263.4 565.3,263.3 576.0,263.4 586.7,264.2 597.3,264.9 608.0,265.3 618.7,265.7 629.3,266.0 640.0,265.8 650.7,265.7 661.3,266.2 672.0,266.8 682.7,267.1 693.3,267.3 704.0,267.9 714.7,268.1 725.3,267.8 736.0,267.6" fill="none" stroke="#3f8f5e" stroke-width="3" stroke-linecap="round" stroke-linejoin="round"/>
<circle cx="736.0" cy="267.6" r="4" fill="#3f8f5e"/>
<text x="680.0" y="271.6" font-family="monospace" font-size="11" fill="#3f8f5e">C 0.103</text>
<rect x="64" y="304" width="18" height="3" fill="#2f6f9f"/>
<text x="88" y="308" font-family="monospace" font-size="10" fill="#344054">A c_6167ee</text>
<rect x="224" y="304" width="18" height="3" fill="#b35f2a"/>
<text x="248" y="308" font-family="monospace" font-size="10" fill="#344054">B c_cc7de7</text>
<rect x="384" y="304" width="18" height="3" fill="#3f8f5e"/>
<text x="408" y="308" font-family="monospace" font-size="10" fill="#344054">C c_b467b2 winner</text>
</svg>