<svg xmlns="http://www.w3.org/2000/svg" viewBox="0 0 760 320" role="img">
<rect width="100%" height="100%" fill="#ffffff"/>
<text x="64" y="18" font-family="Arial, sans-serif" font-size="13" fill="#344054">q_993e97 · lower test_mse wins</text>
<line x1="64" y1="274.0" x2="736" y2="274.0" stroke="#e6e8ef" stroke-width="1"/>
<text x="56" y="278.0" text-anchor="end" font-family="monospace" font-size="10" fill="#667085">1e-12</text>
<line x1="64" y1="212.5" x2="736" y2="212.5" stroke="#e6e8ef" stroke-width="1"/>
<text x="56" y="216.5" text-anchor="end" font-family="monospace" font-size="10" fill="#667085">4.91</text>
<line x1="64" y1="151.0" x2="736" y2="151.0" stroke="#e6e8ef" stroke-width="1"/>
<text x="56" y="155.0" text-anchor="end" font-family="monospace" font-size="10" fill="#667085">9.83</text>
<line x1="64" y1="89.5" x2="736" y2="89.5" stroke="#e6e8ef" stroke-width="1"/>
<text x="56" y="93.5" text-anchor="end" font-family="monospace" font-size="10" fill="#667085">14.7</text>
<line x1="64" y1="28.0" x2="736" y2="28.0" stroke="#e6e8ef" stroke-width="1"/>
<text x="56" y="32.0" text-anchor="end" font-family="monospace" font-size="10" fill="#667085">19.7</text>
<line x1="64.0" y1="28" x2="64.0" y2="274" stroke="#f1f3f7" stroke-width="1"/>
<text x="64.0" y="302" text-anchor="middle" font-family="monospace" font-size="10" fill="#667085">32</text>
<line x1="232.0" y1="28" x2="232.0" y2="274" stroke="#f1f3f7" stroke-width="1"/>
<text x="232.0" y="302" text-anchor="middle" font-family="monospace" font-size="10" fill="#667085">536</text>
<line x1="400.0" y1="28" x2="400.0" y2="274" stroke="#f1f3f7" stroke-width="1"/>
<text x="400.0" y="302" text-anchor="middle" font-family="monospace" font-size="10" fill="#667085">1040</text>
<line x1="568.0" y1="28" x2="568.0" y2="274" stroke="#f1f3f7" stroke-width="1"/>
<text x="568.0" y="302" text-anchor="middle" font-family="monospace" font-size="10" fill="#667085">1544</text>
<line x1="736.0" y1="28" x2="736.0" y2="274" stroke="#f1f3f7" stroke-width="1"/>
<text x="736.0" y="302" text-anchor="middle" font-family="monospace" font-size="10" fill="#667085">2048</text>
<line x1="64" y1="274" x2="736" y2="274" stroke="#98a2b3" stroke-width="1"/>
<line x1="64" y1="28" x2="64" y2="274" stroke="#98a2b3" stroke-width="1"/>
<polyline points="64.0,261.1 74.7,262.9 85.3,264.0 96.0,264.9 106.7,265.5 117.3,266.2 128.0,266.6 138.7,267.0 149.3,267.3 160.0,267.5 170.7,267.8 181.3,267.9 192.0,268.2 202.7,268.3 213.3,268.5 224.0,268.6 234.7,268.8 245.3,268.9 256.0,269.0 266.7,269.1 277.3,269.2 288.0,269.3 298.7,269.3 309.3,269.4 320.0,269.5 330.7,269.5 341.3,269.6 352.0,269.7 362.7,269.7 373.3,269.8 384.0,269.8 394.7,269.9 405.3,269.9 416.0,270.0 426.7,270.0 437.3,270.0 448.0,270.1 458.7,270.1 469.3,270.2 480.0,270.2 490.7,270.2 501.3,270.2 512.0,270.3 522.7,270.3 533.3,270.3 544.0,270.3 554.7,270.4 565.3,270.4 576.0,270.4 586.7,270.4 597.3,270.4 608.0,270.5 618.7,270.5 629.3,270.5 640.0,270.5 650.7,270.5 661.3,270.5 672.0,270.6 682.7,270.6 693.3,270.6 704.0,270.6 714.7,270.6 725.3,270.6 736.0,270.7" fill="none" stroke="#2f6f9f" stroke-width="2" stroke-linecap="round" stroke-linejoin="round"/>
<circle cx="736.0" cy="270.7" r="4" fill="#2f6f9f"/>
<text x="680.0" y="274.7" font-family="monospace" font-size="11" fill="#2f6f9f">A 0.266</text>
<polyline points="64.0,46.2 74.7,213.7 85.3,241.5 96.0,268.4 106.7,269.0 117.3,269.5 128.0,269.4 138.7,269.9 149.3,269.9 160.0,270.1 170.7,269.4 181.3,270.2 192.0,270.3 202.7,270.8 213.3,270.6 224.0,270.9 234.7,270.7 245.3,271.0 256.0,271.0 266.7,270.9 277.3,271.1 288.0,271.2 298.7,271.1 309.3,271.0 320.0,271.2 330.7,271.0 341.3,271.2 352.0,270.8 362.7,271.4 373.3,271.2 384.0,271.4 394.7,271.3 405.3,271.4 416.0,271.6 426.7,271.5 437.3,271.5 448.0,271.4 458.7,271.6 469.3,271.6 480.0,271.8 490.7,271.7 501.3,271.9 512.0,271.9 522.7,271.9 533.3,272.0 544.0,272.0 554.7,271.8 565.3,271.9 576.0,271.9 586.7,272.0 597.3,272.0 608.0,272.0 618.7,272.2 629.3,272.2 640.0,272.2 650.7,272.2 661.3,272.1 672.0,272.2 682.7,272.2 693.3,272.1 704.0,272.4 714.7,272.4 725.3,272.4 736.0,272.3" fill="none" stroke="#b35f2a" stroke-width="2" stroke-linecap="round" stroke-linejoin="round"/>
<circle cx="736.0" cy="272.3" r="4" fill="#b35f2a"/>
<text x="680.0" y="276.3" font-family="monospace" font-size="11" fill="#b35f2a">B 0.137</text>
<polyline points="64.0,266.9 74.7,267.4 85.3,268.1 96.0,268.8 106.7,269.4 117.3,270.1 128.0,270.3 138.7,270.6 149.3,271.0 160.0,271.3 170.7,271.6 181.3,271.8 192.0,271.7 202.7,272.1 213.3,272.2 224.0,272.2 234.7,272.1 245.3,272.3 256.0,272.4 266.7,272.5 277.3,272.6 288.0,272.5 298.7,272.6 309.3,272.5 320.0,272.5 330.7,272.6 341.3,272.6 352.0,272.6 362.7,272.8 373.3,272.8 384.0,272.8 394.7,272.8 405.3,272.8 416.0,272.8 426.7,272.8 437.3,272.8 448.0,272.8 458.7,272.8 469.3,272.8 480.0,272.9 490.7,272.8 501.3,272.9 512.0,272.9 522.7,272.9 533.3,272.9 544.0,272.9 554.7,272.9 565.3,272.9 576.0,273.0 586.7,273.0 597.3,273.0 608.0,273.0 618.7,273.0 629.3,273.0 640.0,273.0 650.7,273.0 661.3,273.0 672.0,273.0 682.7,273.0 693.3,273.1 704.0,273.0 714.7,273.1 725.3,273.0 736.0,273.0" fill="none" stroke="#3f8f5e" stroke-width="3" stroke-linecap="round" stroke-linejoin="round"/>
<circle cx="736.0" cy="273.0" r="4" fill="#3f8f5e"/>
<text x="680.0" y="277.0" font-family="monospace" font-size="11" fill="#3f8f5e">C 0.0787</text>
<rect x="64" y="304" width="18" height="3" fill="#2f6f9f"/>
<text x="88" y="308" font-family="monospace" font-size="10" fill="#344054">A c_ee77e6</text>
<rect x="224" y="304" width="18" height="3" fill="#b35f2a"/>
<text x="248" y="308" font-family="monospace" font-size="10" fill="#344054">B c_ab987f</text>
<rect x="384" y="304" width="18" height="3" fill="#3f8f5e"/>
<text x="408" y="308" font-family="monospace" font-size="10" fill="#344054">C c_c6d415 winner</text>
</svg>