<svg xmlns="http://www.w3.org/2000/svg" viewBox="0 0 760 320" role="img">
<rect width="100%" height="100%" fill="#ffffff"/>
<text x="64" y="18" font-family="Arial, sans-serif" font-size="13" fill="#344054">q_b24cf4 · lower test_mse wins</text>
<line x1="64" y1="274.0" x2="736" y2="274.0" stroke="#e6e8ef" stroke-width="1"/>
<text x="56" y="278.0" text-anchor="end" font-family="monospace" font-size="10" fill="#667085">1e-12</text>
<line x1="64" y1="212.5" x2="736" y2="212.5" stroke="#e6e8ef" stroke-width="1"/>
<text x="56" y="216.5" text-anchor="end" font-family="monospace" font-size="10" fill="#667085">0.159</text>
<line x1="64" y1="151.0" x2="736" y2="151.0" stroke="#e6e8ef" stroke-width="1"/>
<text x="56" y="155.0" text-anchor="end" font-family="monospace" font-size="10" fill="#667085">0.318</text>
<line x1="64" y1="89.5" x2="736" y2="89.5" stroke="#e6e8ef" stroke-width="1"/>
<text x="56" y="93.5" text-anchor="end" font-family="monospace" font-size="10" fill="#667085">0.477</text>
<line x1="64" y1="28.0" x2="736" y2="28.0" stroke="#e6e8ef" stroke-width="1"/>
<text x="56" y="32.0" text-anchor="end" font-family="monospace" font-size="10" fill="#667085">0.636</text>
<line x1="64.0" y1="28" x2="64.0" y2="274" stroke="#f1f3f7" stroke-width="1"/>
<text x="64.0" y="302" text-anchor="middle" font-family="monospace" font-size="10" fill="#667085">32</text>
<line x1="232.0" y1="28" x2="232.0" y2="274" stroke="#f1f3f7" stroke-width="1"/>
<text x="232.0" y="302" text-anchor="middle" font-family="monospace" font-size="10" fill="#667085">536</text>
<line x1="400.0" y1="28" x2="400.0" y2="274" stroke="#f1f3f7" stroke-width="1"/>
<text x="400.0" y="302" text-anchor="middle" font-family="monospace" font-size="10" fill="#667085">1040</text>
<line x1="568.0" y1="28" x2="568.0" y2="274" stroke="#f1f3f7" stroke-width="1"/>
<text x="568.0" y="302" text-anchor="middle" font-family="monospace" font-size="10" fill="#667085">1544</text>
<line x1="736.0" y1="28" x2="736.0" y2="274" stroke="#f1f3f7" stroke-width="1"/>
<text x="736.0" y="302" text-anchor="middle" font-family="monospace" font-size="10" fill="#667085">2048</text>
<line x1="64" y1="274" x2="736" y2="274" stroke="#98a2b3" stroke-width="1"/>
<line x1="64" y1="28" x2="64" y2="274" stroke="#98a2b3" stroke-width="1"/>
<polyline points="64.0,45.6 74.7,75.3 85.3,89.6 96.0,118.1 106.7,120.5 117.3,124.1 128.0,130.5 138.7,135.9 149.3,132.1 160.0,137.6 170.7,141.1 181.3,137.4 192.0,144.3 202.7,142.3 213.3,143.5 224.0,141.2 234.7,140.4 245.3,145.5 256.0,139.9 266.7,141.2 277.3,140.4 288.0,144.9 298.7,142.1 309.3,138.8 320.0,142.4 330.7,142.4 341.3,144.9 352.0,140.4 362.7,141.2 373.3,142.2 384.0,140.5 394.7,139.9 405.3,144.8 416.0,142.0 426.7,143.8 437.3,139.1 448.0,134.9 458.7,140.3 469.3,141.9 480.0,141.6 490.7,141.9 501.3,131.6 512.0,139.8 522.7,141.5 533.3,140.0 544.0,138.2 554.7,141.3 565.3,141.4 576.0,142.6 586.7,142.0 597.3,144.1 608.0,139.1 618.7,138.3 629.3,138.0 640.0,142.8 650.7,142.3 661.3,144.6 672.0,144.2 682.7,145.1 693.3,141.6 704.0,142.1 714.7,144.9 725.3,141.4 736.0,141.4" fill="none" stroke="#2f6f9f" stroke-width="2" stroke-linecap="round" stroke-linejoin="round"/>
<circle cx="736.0" cy="141.4" r="4" fill="#2f6f9f"/>
<text x="680.0" y="145.4" font-family="monospace" font-size="11" fill="#2f6f9f">A 0.343</text>
<polyline points="64.0,60.2 74.7,46.9 85.3,124.0 96.0,169.6 106.7,186.4 117.3,190.2 128.0,192.2 138.7,196.3 149.3,215.5 160.0,219.1 170.7,224.7 181.3,229.8 192.0,230.9 202.7,233.6 213.3,233.4 224.0,237.4 234.7,239.7 245.3,242.0 256.0,241.3 266.7,243.2 277.3,245.3 288.0,248.3 298.7,248.0 309.3,247.7 320.0,249.4 330.7,249.7 341.3,250.8 352.0,250.2 362.7,250.6 373.3,253.0 384.0,250.0 394.7,251.0 405.3,254.3 416.0,255.8 426.7,255.5 437.3,255.1 448.0,256.9 458.7,257.4 469.3,257.0 480.0,258.6 490.7,257.5 501.3,258.5 512.0,257.1 522.7,259.9 533.3,259.9 544.0,260.4 554.7,259.7 565.3,261.2 576.0,262.6 586.7,260.8 597.3,262.2 608.0,263.6 618.7,260.7 629.3,263.1 640.0,262.9 650.7,264.1 661.3,264.4 672.0,264.0 682.7,264.8 693.3,264.5 704.0,263.6 714.7,265.4 725.3,265.0 736.0,265.0" fill="none" stroke="#b35f2a" stroke-width="3" stroke-linecap="round" stroke-linejoin="round"/>
<circle cx="736.0" cy="265.0" r="4" fill="#b35f2a"/>
<text x="680.0" y="269.0" font-family="monospace" font-size="11" fill="#b35f2a">B 0.0232</text>
<polyline points="64.0,63.7 74.7,84.9 85.3,111.0 96.0,141.0 106.7,163.6 117.3,172.1 128.0,173.0 138.7,172.5 149.3,174.2 160.0,172.0 170.7,163.3 181.3,158.5 192.0,161.6 202.7,169.7 213.3,177.7 224.0,183.3 234.7,187.7 245.3,191.1 256.0,193.1 266.7,194.1 277.3,195.0 288.0,194.4 298.7,195.0 309.3,196.7 320.0,198.0 330.7,199.0 341.3,201.6 352.0,204.8 362.7,206.6 373.3,207.4 384.0,206.9 394.7,206.4 405.3,207.1 416.0,208.9 426.7,210.3 437.3,211.5 448.0,213.7 458.7,215.9 469.3,217.0 480.0,217.4 490.7,217.9 501.3,219.2 512.0,220.5 522.7,221.9 533.3,223.1 544.0,224.8 554.7,226.2 565.3,226.7 576.0,227.1 586.7,227.5 597.3,227.8 608.0,228.6 618.7,229.8 629.3,231.4 640.0,233.0 650.7,234.4 661.3,235.4 672.0,236.4 682.7,237.2 693.3,237.8 704.0,238.5 714.7,240.0 725.3,242.4 736.0,244.3" fill="none" stroke="#3f8f5e" stroke-width="2" stroke-linecap="round" stroke-linejoin="round"/>
<circle cx="736.0" cy="244.3" r="4" fill="#3f8f5e"/>
<text x="680.0" y="248.3" font-family="monospace" font-size="11" fill="#3f8f5e">C 0.0768</text>
<rect x="64" y="304" width="18" height="3" fill="#2f6f9f"/>
<text x="88" y="308" font-family="monospace" font-size="10" fill="#344054">A c_e5228f</text>
<rect x="224" y="304" width="18" height="3" fill="#b35f2a"/>
<text x="248" y="308" font-family="monospace" font-size="10" fill="#344054">B c_428635 winner</text>
<rect x="384" y="304" width="18" height="3" fill="#3f8f5e"/>
<text x="408" y="308" font-family="monospace" font-size="10" fill="#344054">C c_a62e84</text>
</svg>