<svg xmlns="http://www.w3.org/2000/svg" viewBox="0 0 760 320" role="img">
<rect width="100%" height="100%" fill="#ffffff"/>
<text x="64" y="18" font-family="Arial, sans-serif" font-size="13" fill="#344054">q_073f9b · lower test_mse wins</text>
<line x1="64" y1="274.0" x2="736" y2="274.0" stroke="#e6e8ef" stroke-width="1"/>
<text x="56" y="278.0" text-anchor="end" font-family="monospace" font-size="10" fill="#667085">1e-12</text>
<line x1="64" y1="212.5" x2="736" y2="212.5" stroke="#e6e8ef" stroke-width="1"/>
<text x="56" y="216.5" text-anchor="end" font-family="monospace" font-size="10" fill="#667085">0.198</text>
<line x1="64" y1="151.0" x2="736" y2="151.0" stroke="#e6e8ef" stroke-width="1"/>
<text x="56" y="155.0" text-anchor="end" font-family="monospace" font-size="10" fill="#667085">0.396</text>
<line x1="64" y1="89.5" x2="736" y2="89.5" stroke="#e6e8ef" stroke-width="1"/>
<text x="56" y="93.5" text-anchor="end" font-family="monospace" font-size="10" fill="#667085">0.594</text>
<line x1="64" y1="28.0" x2="736" y2="28.0" stroke="#e6e8ef" stroke-width="1"/>
<text x="56" y="32.0" text-anchor="end" font-family="monospace" font-size="10" fill="#667085">0.792</text>
<line x1="64.0" y1="28" x2="64.0" y2="274" stroke="#f1f3f7" stroke-width="1"/>
<text x="64.0" y="302" text-anchor="middle" font-family="monospace" font-size="10" fill="#667085">32</text>
<line x1="232.0" y1="28" x2="232.0" y2="274" stroke="#f1f3f7" stroke-width="1"/>
<text x="232.0" y="302" text-anchor="middle" font-family="monospace" font-size="10" fill="#667085">536</text>
<line x1="400.0" y1="28" x2="400.0" y2="274" stroke="#f1f3f7" stroke-width="1"/>
<text x="400.0" y="302" text-anchor="middle" font-family="monospace" font-size="10" fill="#667085">1040</text>
<line x1="568.0" y1="28" x2="568.0" y2="274" stroke="#f1f3f7" stroke-width="1"/>
<text x="568.0" y="302" text-anchor="middle" font-family="monospace" font-size="10" fill="#667085">1544</text>
<line x1="736.0" y1="28" x2="736.0" y2="274" stroke="#f1f3f7" stroke-width="1"/>
<text x="736.0" y="302" text-anchor="middle" font-family="monospace" font-size="10" fill="#667085">2048</text>
<line x1="64" y1="274" x2="736" y2="274" stroke="#98a2b3" stroke-width="1"/>
<line x1="64" y1="28" x2="64" y2="274" stroke="#98a2b3" stroke-width="1"/>
<polyline points="64.0,105.2 74.7,122.2 85.3,143.2 96.0,167.3 106.7,185.4 117.3,192.2 128.0,193.0 138.7,192.5 149.3,193.9 160.0,192.2 170.7,185.1 181.3,181.3 192.0,183.8 202.7,190.3 213.3,196.7 224.0,201.2 234.7,204.7 245.3,207.5 256.0,209.1 266.7,209.9 277.3,210.6 288.0,210.1 298.7,210.6 309.3,212.0 320.0,213.0 330.7,213.8 341.3,215.9 352.0,218.4 362.7,219.9 373.3,220.6 384.0,220.1 394.7,219.7 405.3,220.3 416.0,221.7 426.7,222.9 437.3,223.8 448.0,225.6 458.7,227.4 469.3,228.2 480.0,228.6 490.7,229.0 501.3,230.0 512.0,231.0 522.7,232.2 533.3,233.2 544.0,234.5 554.7,235.6 565.3,236.1 576.0,236.4 586.7,236.7 597.3,237.0 608.0,237.5 618.7,238.6 629.3,239.8 640.0,241.1 650.7,242.2 661.3,243.0 672.0,243.8 682.7,244.4 693.3,244.9 704.0,245.5 714.7,246.7 725.3,248.6 736.0,250.2" fill="none" stroke="#2f6f9f" stroke-width="2" stroke-linecap="round" stroke-linejoin="round"/>
<circle cx="736.0" cy="250.2" r="4" fill="#2f6f9f"/>
<text x="680.0" y="254.2" font-family="monospace" font-size="11" fill="#2f6f9f">A 0.0768</text>
<polyline points="64.0,102.4 74.7,91.7 85.3,153.6 96.0,190.2 106.7,203.7 117.3,206.7 128.0,208.3 138.7,211.7 149.3,227.1 160.0,229.9 170.7,234.5 181.3,238.5 192.0,239.4 202.7,241.6 213.3,241.5 224.0,244.6 234.7,246.5 245.3,248.4 256.0,247.7 266.7,249.3 277.3,251.0 288.0,253.4 298.7,253.1 309.3,252.9 320.0,254.2 330.7,254.5 341.3,255.4 352.0,254.9 362.7,255.2 373.3,257.1 384.0,254.7 394.7,255.6 405.3,258.2 416.0,259.4 426.7,259.2 437.3,258.8 448.0,260.3 458.7,260.7 469.3,260.4 480.0,261.7 490.7,260.7 501.3,261.5 512.0,260.5 522.7,262.7 533.3,262.7 544.0,263.1 554.7,262.5 565.3,263.7 576.0,264.9 586.7,263.4 597.3,264.5 608.0,265.6 618.7,263.3 629.3,265.3 640.0,265.1 650.7,266.0 661.3,266.3 672.0,266.0 682.7,266.6 693.3,266.3 704.0,265.6 714.7,267.1 725.3,266.7 736.0,266.8" fill="none" stroke="#b35f2a" stroke-width="3" stroke-linecap="round" stroke-linejoin="round"/>
<circle cx="736.0" cy="266.8" r="4" fill="#b35f2a"/>
<text x="680.0" y="270.8" font-family="monospace" font-size="11" fill="#b35f2a">B 0.0232</text>
<polyline points="64.0,45.7 74.7,46.0 85.3,46.3 96.0,46.6 106.7,46.9 117.3,47.2 128.0,47.5 138.7,47.8 149.3,48.1 160.0,48.4 170.7,48.6 181.3,48.9 192.0,49.2 202.7,49.5 213.3,49.8 224.0,50.0 234.7,50.3 245.3,50.6 256.0,50.9 266.7,51.1 277.3,51.4 288.0,51.7 298.7,51.9 309.3,52.2 320.0,52.5 330.7,52.7 341.3,53.0 352.0,53.2 362.7,53.5 373.3,53.8 384.0,54.0 394.7,54.3 405.3,54.5 416.0,54.8 426.7,55.0 437.3,55.3 448.0,55.5 458.7,55.8 469.3,56.0 480.0,56.3 490.7,56.5 501.3,56.8 512.0,57.0 522.7,57.3 533.3,57.5 544.0,57.8 554.7,58.0 565.3,58.3 576.0,58.5 586.7,58.7 597.3,59.0 608.0,59.2 618.7,59.5 629.3,59.7 640.0,59.9 650.7,60.2 661.3,60.4 672.0,60.6 682.7,60.8 693.3,61.1 704.0,61.3 714.7,61.5 725.3,61.8 736.0,62.0" fill="none" stroke="#3f8f5e" stroke-width="2" stroke-linecap="round" stroke-linejoin="round"/>
<circle cx="736.0" cy="62.0" r="4" fill="#3f8f5e"/>
<text x="680.0" y="66.0" font-family="monospace" font-size="11" fill="#3f8f5e">C 0.683</text>
<rect x="64" y="304" width="18" height="3" fill="#2f6f9f"/>
<text x="88" y="308" font-family="monospace" font-size="10" fill="#344054">A c_a62e84</text>
<rect x="224" y="304" width="18" height="3" fill="#b35f2a"/>
<text x="248" y="308" font-family="monospace" font-size="10" fill="#344054">B c_428635 winner</text>
<rect x="384" y="304" width="18" height="3" fill="#3f8f5e"/>
<text x="408" y="308" font-family="monospace" font-size="10" fill="#344054">C c_0edfea</text>
</svg>