<svg xmlns="http://www.w3.org/2000/svg" viewBox="0 0 760 320" role="img">
<rect width="100%" height="100%" fill="#ffffff"/>
<text x="64" y="18" font-family="Arial, sans-serif" font-size="13" fill="#344054">q_b87c20 · lower test_mse wins</text>
<line x1="64" y1="274.0" x2="736" y2="274.0" stroke="#e6e8ef" stroke-width="1"/>
<text x="56" y="278.0" text-anchor="end" font-family="monospace" font-size="10" fill="#667085">0.183</text>
<line x1="64" y1="212.5" x2="736" y2="212.5" stroke="#e6e8ef" stroke-width="1"/>
<text x="56" y="216.5" text-anchor="end" font-family="monospace" font-size="10" fill="#667085">0.487</text>
<line x1="64" y1="151.0" x2="736" y2="151.0" stroke="#e6e8ef" stroke-width="1"/>
<text x="56" y="155.0" text-anchor="end" font-family="monospace" font-size="10" fill="#667085">0.79</text>
<line x1="64" y1="89.5" x2="736" y2="89.5" stroke="#e6e8ef" stroke-width="1"/>
<text x="56" y="93.5" text-anchor="end" font-family="monospace" font-size="10" fill="#667085">1.09</text>
<line x1="64" y1="28.0" x2="736" y2="28.0" stroke="#e6e8ef" stroke-width="1"/>
<text x="56" y="32.0" text-anchor="end" font-family="monospace" font-size="10" fill="#667085">1.4</text>
<line x1="64.0" y1="28" x2="64.0" y2="274" stroke="#f1f3f7" stroke-width="1"/>
<text x="64.0" y="302" text-anchor="middle" font-family="monospace" font-size="10" fill="#667085">32</text>
<line x1="232.0" y1="28" x2="232.0" y2="274" stroke="#f1f3f7" stroke-width="1"/>
<text x="232.0" y="302" text-anchor="middle" font-family="monospace" font-size="10" fill="#667085">536</text>
<line x1="400.0" y1="28" x2="400.0" y2="274" stroke="#f1f3f7" stroke-width="1"/>
<text x="400.0" y="302" text-anchor="middle" font-family="monospace" font-size="10" fill="#667085">1040</text>
<line x1="568.0" y1="28" x2="568.0" y2="274" stroke="#f1f3f7" stroke-width="1"/>
<text x="568.0" y="302" text-anchor="middle" font-family="monospace" font-size="10" fill="#667085">1544</text>
<line x1="736.0" y1="28" x2="736.0" y2="274" stroke="#f1f3f7" stroke-width="1"/>
<text x="736.0" y="302" text-anchor="middle" font-family="monospace" font-size="10" fill="#667085">2048</text>
<line x1="64" y1="274" x2="736" y2="274" stroke="#98a2b3" stroke-width="1"/>
<line x1="64" y1="28" x2="64" y2="274" stroke="#98a2b3" stroke-width="1"/>
<polyline points="64.0,121.2 74.7,122.8 85.3,124.2 96.0,125.6 106.7,126.9 117.3,128.2 128.0,129.6 138.7,131.1 149.3,132.5 160.0,133.6 170.7,134.6 181.3,135.7 192.0,136.6 202.7,137.8 213.3,138.7 224.0,139.9 234.7,141.0 245.3,142.1 256.0,143.0 266.7,143.9 277.3,145.0 288.0,145.9 298.7,146.9 309.3,147.8 320.0,148.6 330.7,149.4 341.3,150.2 352.0,151.2 362.7,152.0 373.3,152.9 384.0,153.7 394.7,154.6 405.3,155.2 416.0,155.9 426.7,156.8 437.3,157.5 448.0,158.1 458.7,158.6 469.3,159.4 480.0,160.1 490.7,160.6 501.3,161.2 512.0,161.8 522.7,162.4 533.3,162.9 544.0,163.5 554.7,164.2 565.3,164.6 576.0,165.0 586.7,165.7 597.3,166.2 608.0,166.7 618.7,167.3 629.3,167.8 640.0,168.2 650.7,168.7 661.3,169.3 672.0,169.7 682.7,170.1 693.3,170.5 704.0,171.0 714.7,171.4 725.3,171.8 736.0,172.2" fill="none" stroke="#2f6f9f" stroke-width="2" stroke-linecap="round" stroke-linejoin="round"/>
<circle cx="736.0" cy="172.2" r="4" fill="#2f6f9f"/>
<text x="680.0" y="176.2" font-family="monospace" font-size="11" fill="#2f6f9f">A 0.686</text>
<polyline points="64.0,164.1 74.7,165.9 85.3,167.6 96.0,169.2 106.7,170.8 117.3,172.3 128.0,173.8 138.7,175.2 149.3,176.5 160.0,177.8 170.7,179.0 181.3,180.2 192.0,181.3 202.7,182.4 213.3,183.4 224.0,184.4 234.7,185.4 245.3,186.3 256.0,187.2 266.7,188.1 277.3,188.9 288.0,189.8 298.7,190.6 309.3,191.3 320.0,192.0 330.7,192.7 341.3,193.3 352.0,194.0 362.7,194.6 373.3,195.2 384.0,195.7 394.7,196.3 405.3,196.8 416.0,197.4 426.7,197.9 437.3,198.4 448.0,199.0 458.7,199.5 469.3,200.0 480.0,200.5 490.7,201.0 501.3,201.4 512.0,201.9 522.7,202.4 533.3,202.8 544.0,203.3 554.7,203.7 565.3,204.2 576.0,204.6 586.7,205.1 597.3,205.5 608.0,206.0 618.7,206.4 629.3,206.8 640.0,207.3 650.7,207.7 661.3,208.2 672.0,208.7 682.7,209.1 693.3,209.6 704.0,210.1 714.7,210.5 725.3,211.0 736.0,211.4" fill="none" stroke="#b35f2a" stroke-width="2" stroke-linecap="round" stroke-linejoin="round"/>
<circle cx="736.0" cy="211.4" r="4" fill="#b35f2a"/>
<text x="680.0" y="215.4" font-family="monospace" font-size="11" fill="#b35f2a">B 0.492</text>
<polyline points="64.0,45.0 74.7,165.5 85.3,225.0 96.0,243.5 106.7,245.2 117.3,250.7 128.0,246.8 138.7,243.9 149.3,252.5 160.0,248.9 170.7,248.3 181.3,248.2 192.0,251.2 202.7,252.9 213.3,248.6 224.0,251.6 234.7,248.3 245.3,246.2 256.0,252.6 266.7,245.7 277.3,251.3 288.0,247.5 298.7,252.1 309.3,248.3 320.0,250.7 330.7,247.8 341.3,251.8 352.0,251.2 362.7,251.8 373.3,250.8 384.0,250.7 394.7,251.4 405.3,252.3 416.0,253.2 426.7,253.9 437.3,253.7 448.0,255.1 458.7,251.0 469.3,253.6 480.0,252.6 490.7,254.0 501.3,255.8 512.0,254.8 522.7,255.3 533.3,254.3 544.0,257.0 554.7,250.7 565.3,254.0 576.0,256.1 586.7,256.8 597.3,252.1 608.0,255.3 618.7,253.4 629.3,255.6 640.0,256.8 650.7,252.7 661.3,253.7 672.0,256.1 682.7,256.2 693.3,255.2 704.0,254.2 714.7,255.9 725.3,256.7 736.0,254.1" fill="none" stroke="#3f8f5e" stroke-width="3" stroke-linecap="round" stroke-linejoin="round"/>
<circle cx="736.0" cy="254.1" r="4" fill="#3f8f5e"/>
<text x="680.0" y="258.1" font-family="monospace" font-size="11" fill="#3f8f5e">C 0.281</text>
<rect x="64" y="304" width="18" height="3" fill="#2f6f9f"/>
<text x="88" y="308" font-family="monospace" font-size="10" fill="#344054">A c_950b41</text>
<rect x="224" y="304" width="18" height="3" fill="#b35f2a"/>
<text x="248" y="308" font-family="monospace" font-size="10" fill="#344054">B c_d84ef5</text>
<rect x="384" y="304" width="18" height="3" fill="#3f8f5e"/>
<text x="408" y="308" font-family="monospace" font-size="10" fill="#344054">C c_4b8dd3 winner</text>
</svg>