<svg xmlns="http://www.w3.org/2000/svg" viewBox="0 0 760 320" role="img">
<rect width="100%" height="100%" fill="#ffffff"/>
<text x="64" y="18" font-family="Arial, sans-serif" font-size="13" fill="#344054">q_c2f34a · lower test_mse wins</text>
<line x1="64" y1="274.0" x2="736" y2="274.0" stroke="#e6e8ef" stroke-width="1"/>
<text x="56" y="278.0" text-anchor="end" font-family="monospace" font-size="10" fill="#667085">1e-12</text>
<line x1="64" y1="212.5" x2="736" y2="212.5" stroke="#e6e8ef" stroke-width="1"/>
<text x="56" y="216.5" text-anchor="end" font-family="monospace" font-size="10" fill="#667085">1.64</text>
<line x1="64" y1="151.0" x2="736" y2="151.0" stroke="#e6e8ef" stroke-width="1"/>
<text x="56" y="155.0" text-anchor="end" font-family="monospace" font-size="10" fill="#667085">3.27</text>
<line x1="64" y1="89.5" x2="736" y2="89.5" stroke="#e6e8ef" stroke-width="1"/>
<text x="56" y="93.5" text-anchor="end" font-family="monospace" font-size="10" fill="#667085">4.91</text>
<line x1="64" y1="28.0" x2="736" y2="28.0" stroke="#e6e8ef" stroke-width="1"/>
<text x="56" y="32.0" text-anchor="end" font-family="monospace" font-size="10" fill="#667085">6.55</text>
<line x1="64.0" y1="28" x2="64.0" y2="274" stroke="#f1f3f7" stroke-width="1"/>
<text x="64.0" y="302" text-anchor="middle" font-family="monospace" font-size="10" fill="#667085">32</text>
<line x1="232.0" y1="28" x2="232.0" y2="274" stroke="#f1f3f7" stroke-width="1"/>
<text x="232.0" y="302" text-anchor="middle" font-family="monospace" font-size="10" fill="#667085">1304</text>
<line x1="400.0" y1="28" x2="400.0" y2="274" stroke="#f1f3f7" stroke-width="1"/>
<text x="400.0" y="302" text-anchor="middle" font-family="monospace" font-size="10" fill="#667085">2576</text>
<line x1="568.0" y1="28" x2="568.0" y2="274" stroke="#f1f3f7" stroke-width="1"/>
<text x="568.0" y="302" text-anchor="middle" font-family="monospace" font-size="10" fill="#667085">3848</text>
<line x1="736.0" y1="28" x2="736.0" y2="274" stroke="#f1f3f7" stroke-width="1"/>
<text x="736.0" y="302" text-anchor="middle" font-family="monospace" font-size="10" fill="#667085">5120</text>
<line x1="64" y1="274" x2="736" y2="274" stroke="#98a2b3" stroke-width="1"/>
<line x1="64" y1="28" x2="64" y2="274" stroke="#98a2b3" stroke-width="1"/>
<polyline points="64.0,235.0 68.2,242.0 72.5,243.3 76.7,242.6 80.9,243.1 85.1,242.3 89.4,245.0 93.6,244.6 97.8,244.3 102.0,244.9 106.3,245.9 110.5,244.9 114.7,244.9 118.9,245.8 123.2,245.8 127.4,245.7 131.6,245.4 135.8,246.2 140.1,246.1 144.3,246.6 148.5,246.9 152.8,246.3 157.0,246.8 161.2,246.3 165.4,247.0 169.7,247.4 173.9,247.1 178.1,247.1 182.3,248.1 186.6,247.6 190.8,247.0 195.0,247.4 199.2,247.1 203.5,247.5 207.7,248.5 211.9,248.2 216.2,247.9 220.4,248.2 224.6,248.0 228.8,248.1 233.1,248.7 237.3,247.8 241.5,248.8 245.7,248.7 250.0,248.9 254.2,249.3 258.4,249.2 262.6,249.0 266.9,249.6 271.1,249.6 275.3,248.9 279.5,249.0 283.8,250.4 288.0,250.0 292.2,250.4 296.5,250.2 300.7,250.5 304.9,250.3 309.1,250.5 313.4,250.4 317.6,250.9 321.8,251.0 326.0,251.6 330.3,251.2 334.5,251.9 338.7,250.9 342.9,251.7 347.2,251.3 351.4,251.4 355.6,252.1 359.8,251.9 364.1,252.6 368.3,251.6 372.5,252.8 376.8,252.8 381.0,252.8 385.2,253.1 389.4,253.1 393.7,253.1 397.9,252.8 402.1,253.0 406.3,253.8 410.6,253.7 414.8,253.4 419.0,254.3 423.2,253.7 427.5,254.4 431.7,253.5 435.9,253.9 440.2,255.1 444.4,254.6 448.6,254.6 452.8,255.0 457.1,255.1 461.3,254.6 465.5,255.2 469.7,255.7 474.0,255.3 478.2,255.4 482.4,255.7 486.6,255.3 490.9,256.1 495.1,256.0 499.3,256.4 503.5,256.5 507.8,256.5 512.0,256.4 516.2,256.5 520.5,256.5 524.7,256.2 528.9,256.4 533.1,257.4 537.4,256.7 541.6,256.1 545.8,257.2 550.0,257.5 554.3,257.0 558.5,256.8 562.7,257.6 566.9,256.9 571.2,257.2 575.4,256.8 579.6,257.9 583.8,257.9 588.1,257.4 592.3,256.6 596.5,257.9 600.8,257.4 605.0,258.0 609.2,258.5 613.4,257.7 617.7,257.8 621.9,257.5 626.1,257.9 630.3,258.2 634.6,258.6 638.8,257.8 643.0,258.1 647.2,258.5 651.5,258.6 655.7,258.3 659.9,258.7 664.2,258.7 668.4,258.0 672.6,258.7 676.8,258.6 681.1,258.4 685.3,258.4 689.5,258.2 693.7,258.5 698.0,259.1 702.2,258.8 706.4,258.9 710.6,259.0 714.9,259.0 719.1,258.8 723.3,259.0 727.5,258.6 731.8,259.5 736.0,259.5" fill="none" stroke="#2f6f9f" stroke-width="3" stroke-linecap="round" stroke-linejoin="round"/>
<circle cx="736.0" cy="259.5" r="4" fill="#2f6f9f"/>
<text x="680.0" y="263.5" font-family="monospace" font-size="11" fill="#2f6f9f">A 0.387</text>
<polyline points="64.0,68.9 68.2,71.3 72.5,73.7 76.7,76.3 80.9,78.6 85.1,81.0 89.4,83.3 93.6,85.6 97.8,87.8 102.0,90.0 106.3,92.2 110.5,94.4 114.7,96.4 118.9,98.5 123.2,100.6 127.4,102.7 131.6,104.6 135.8,106.6 140.1,108.6 144.3,110.6 148.5,112.5 152.8,114.2 157.0,116.0 161.2,117.8 165.4,119.6 169.7,121.3 173.9,123.0 178.1,124.8 182.3,126.5 186.6,128.3 190.8,129.9 195.0,131.5 199.2,133.0 203.5,134.6 207.7,136.2 211.9,137.8 216.2,139.3 220.4,140.9 224.6,142.3 228.8,143.7 233.1,145.1 237.3,146.7 241.5,148.2 245.7,149.6 250.0,151.0 254.2,152.3 258.4,153.7 262.6,155.0 266.9,156.3 271.1,157.5 275.3,158.8 279.5,160.0 283.8,161.2 288.0,162.4 292.2,163.6 296.5,164.7 300.7,166.0 304.9,167.2 309.1,168.3 313.4,169.4 317.6,170.5 321.8,171.6 326.0,172.7 330.3,173.8 334.5,174.8 338.7,175.8 342.9,176.8 347.2,177.9 351.4,178.9 355.6,179.9 359.8,181.0 364.1,181.9 368.3,182.9 372.5,183.8 376.8,184.6 381.0,185.5 385.2,186.4 389.4,187.3 393.7,188.1 397.9,189.0 402.1,189.7 406.3,190.5 410.6,191.3 414.8,192.1 419.0,192.9 423.2,193.6 427.5,194.4 431.7,195.1 435.9,195.9 440.2,196.6 444.4,197.3 448.6,198.0 452.8,198.8 457.1,199.4 461.3,200.1 465.5,200.8 469.7,201.4 474.0,202.1 478.2,202.7 482.4,203.4 486.6,204.0 490.9,204.6 495.1,205.2 499.3,205.8 503.5,206.4 507.8,207.0 512.0,207.6 516.2,208.2 520.5,208.8 524.7,209.3 528.9,209.9 533.1,210.5 537.4,211.0 541.6,211.5 545.8,212.1 550.0,212.6 554.3,213.1 558.5,213.5 562.7,214.0 566.9,214.4 571.2,214.9 575.4,215.4 579.6,215.8 583.8,216.3 588.1,216.7 592.3,217.2 596.5,217.6 600.8,218.0 605.0,218.4 609.2,218.8 613.4,219.2 617.7,219.6 621.9,220.0 626.1,220.4 630.3,220.8 634.6,221.2 638.8,221.5 643.0,221.9 647.2,222.3 651.5,222.6 655.7,223.0 659.9,223.3 664.2,223.7 668.4,224.0 672.6,224.3 676.8,224.6 681.1,224.9 685.3,225.2 689.5,225.6 693.7,225.9 698.0,226.2 702.2,226.5 706.4,226.8 710.6,227.0 714.9,227.3 719.1,227.5 723.3,227.8 727.5,228.0 731.8,228.3 736.0,228.6" fill="none" stroke="#b35f2a" stroke-width="2" stroke-linecap="round" stroke-linejoin="round"/>
<circle cx="736.0" cy="228.6" r="4" fill="#b35f2a"/>
<text x="680.0" y="232.6" font-family="monospace" font-size="11" fill="#b35f2a">B 1.21</text>
<polyline points="64.0,45.1 68.2,47.0 72.5,48.8 76.7,50.5 80.9,52.3 85.1,54.1 89.4,55.9 93.6,57.6 97.8,59.4 102.0,61.1 106.3,62.8 110.5,64.6 114.7,66.3 118.9,68.0 123.2,69.8 127.4,71.5 131.6,73.3 135.8,75.0 140.1,76.7 144.3,78.5 148.5,80.3 152.8,82.0 157.0,83.8 161.2,85.6 165.4,87.4 169.7,89.2 173.9,91.0 178.1,92.9 182.3,94.7 186.6,96.6 190.8,98.5 195.0,100.4 199.2,102.3 203.5,104.3 207.7,106.3 211.9,108.3 216.2,110.3 220.4,112.3 224.6,114.4 228.8,116.4 233.1,118.6 237.3,120.7 241.5,122.9 245.7,125.1 250.0,127.3 254.2,129.5 258.4,131.8 262.6,134.0 266.9,136.3 271.1,138.7 275.3,141.0 279.5,143.3 283.8,145.7 288.0,148.1 292.2,150.5 296.5,152.9 300.7,155.3 304.9,157.8 309.1,160.2 313.4,162.7 317.6,165.2 321.8,167.7 326.0,170.2 330.3,172.7 334.5,175.2 338.7,177.7 342.9,180.2 347.2,182.7 351.4,185.2 355.6,187.7 359.8,190.1 364.1,192.6 368.3,195.0 372.5,197.4 376.8,199.7 381.0,202.0 385.2,204.3 389.4,206.5 393.7,208.7 397.9,210.8 402.1,212.9 406.3,214.9 410.6,216.9 414.8,218.8 419.0,220.6 423.2,222.4 427.5,224.0 431.7,225.7 435.9,227.2 440.2,228.7 444.4,230.0 448.6,231.4 452.8,232.6 457.1,233.7 461.3,234.8 465.5,235.8 469.7,236.7 474.0,237.6 478.2,238.3 482.4,239.0 486.6,239.7 490.9,240.3 495.1,240.8 499.3,241.2 503.5,241.6 507.8,242.0 512.0,242.3 516.2,242.5 520.5,242.7 524.7,242.9 528.9,243.1 533.1,243.2 537.4,243.3 541.6,243.3 545.8,243.4 550.0,243.4 554.3,243.4 558.5,243.4 562.7,243.4 566.9,243.4 571.2,243.5 575.4,243.5 579.6,243.5 583.8,243.5 588.1,243.5 592.3,243.5 596.5,243.5 600.8,243.5 605.0,243.5 609.2,243.5 613.4,243.6 617.7,243.6 621.9,243.6 626.1,243.6 630.3,243.6 634.6,243.6 638.8,243.6 643.0,243.6 647.2,243.7 651.5,243.7 655.7,243.7 659.9,243.7 664.2,243.7 668.4,243.7 672.6,243.7 676.8,243.7 681.1,243.7 685.3,243.7 689.5,243.7 693.7,243.7 698.0,243.7 702.2,243.7 706.4,243.7 710.6,243.7 714.9,243.7 719.1,243.7 723.3,243.7 727.5,243.7 731.8,243.7 736.0,243.7" fill="none" stroke="#3f8f5e" stroke-width="2" stroke-linecap="round" stroke-linejoin="round"/>
<circle cx="736.0" cy="243.7" r="4" fill="#3f8f5e"/>
<text x="680.0" y="247.7" font-family="monospace" font-size="11" fill="#3f8f5e">C 0.806</text>
<rect x="64" y="304" width="18" height="3" fill="#2f6f9f"/>
<text x="88" y="308" font-family="monospace" font-size="10" fill="#344054">A c_b64766 winner</text>
<rect x="224" y="304" width="18" height="3" fill="#b35f2a"/>
<text x="248" y="308" font-family="monospace" font-size="10" fill="#344054">B c_788d6f</text>
<rect x="384" y="304" width="18" height="3" fill="#3f8f5e"/>
<text x="408" y="308" font-family="monospace" font-size="10" fill="#344054">C c_eb8427</text>
</svg>