<svg xmlns="http://www.w3.org/2000/svg" viewBox="0 0 760 320" role="img">
<rect width="100%" height="100%" fill="#ffffff"/>
<text x="64" y="18" font-family="Arial, sans-serif" font-size="13" fill="#344054">q_70b2fe · lower test_mse wins</text>
<line x1="64" y1="274.0" x2="736" y2="274.0" stroke="#e6e8ef" stroke-width="1"/>
<text x="56" y="278.0" text-anchor="end" font-family="monospace" font-size="10" fill="#667085">1e-12</text>
<line x1="64" y1="212.5" x2="736" y2="212.5" stroke="#e6e8ef" stroke-width="1"/>
<text x="56" y="216.5" text-anchor="end" font-family="monospace" font-size="10" fill="#667085">0.613</text>
<line x1="64" y1="151.0" x2="736" y2="151.0" stroke="#e6e8ef" stroke-width="1"/>
<text x="56" y="155.0" text-anchor="end" font-family="monospace" font-size="10" fill="#667085">1.23</text>
<line x1="64" y1="89.5" x2="736" y2="89.5" stroke="#e6e8ef" stroke-width="1"/>
<text x="56" y="93.5" text-anchor="end" font-family="monospace" font-size="10" fill="#667085">1.84</text>
<line x1="64" y1="28.0" x2="736" y2="28.0" stroke="#e6e8ef" stroke-width="1"/>
<text x="56" y="32.0" text-anchor="end" font-family="monospace" font-size="10" fill="#667085">2.45</text>
<line x1="64.0" y1="28" x2="64.0" y2="274" stroke="#f1f3f7" stroke-width="1"/>
<text x="64.0" y="302" text-anchor="middle" font-family="monospace" font-size="10" fill="#667085">32</text>
<line x1="232.0" y1="28" x2="232.0" y2="274" stroke="#f1f3f7" stroke-width="1"/>
<text x="232.0" y="302" text-anchor="middle" font-family="monospace" font-size="10" fill="#667085">536</text>
<line x1="400.0" y1="28" x2="400.0" y2="274" stroke="#f1f3f7" stroke-width="1"/>
<text x="400.0" y="302" text-anchor="middle" font-family="monospace" font-size="10" fill="#667085">1040</text>
<line x1="568.0" y1="28" x2="568.0" y2="274" stroke="#f1f3f7" stroke-width="1"/>
<text x="568.0" y="302" text-anchor="middle" font-family="monospace" font-size="10" fill="#667085">1544</text>
<line x1="736.0" y1="28" x2="736.0" y2="274" stroke="#f1f3f7" stroke-width="1"/>
<text x="736.0" y="302" text-anchor="middle" font-family="monospace" font-size="10" fill="#667085">2048</text>
<line x1="64" y1="274" x2="736" y2="274" stroke="#98a2b3" stroke-width="1"/>
<line x1="64" y1="28" x2="64" y2="274" stroke="#98a2b3" stroke-width="1"/>
<polyline points="64.0,178.6 74.7,193.9 85.3,202.0 96.0,207.1 106.7,212.0 117.3,216.4 128.0,219.3 138.7,220.7 149.3,221.2 160.0,221.9 170.7,222.9 181.3,224.4 192.0,226.0 202.7,227.4 213.3,228.3 224.0,229.0 234.7,230.4 245.3,231.8 256.0,233.1 266.7,234.0 277.3,234.4 288.0,234.5 298.7,234.3 309.3,234.3 320.0,234.9 330.7,235.8 341.3,236.4 352.0,236.6 362.7,236.1 373.3,235.4 384.0,234.4 394.7,234.5 405.3,235.5 416.0,237.4 426.7,239.0 437.3,239.8 448.0,240.1 458.7,240.2 469.3,240.6 480.0,240.8 490.7,240.8 501.3,240.5 512.0,240.3 522.7,240.2 533.3,240.2 544.0,240.4 554.7,240.7 565.3,241.1 576.0,241.6 586.7,242.4 597.3,243.2 608.0,243.6 618.7,243.5 629.3,243.5 640.0,243.6 650.7,243.6 661.3,243.6 672.0,243.6 682.7,243.8 693.3,244.0 704.0,244.3 714.7,244.8 725.3,245.2 736.0,245.7" fill="none" stroke="#2f6f9f" stroke-width="2" stroke-linecap="round" stroke-linejoin="round"/>
<circle cx="736.0" cy="245.7" r="4" fill="#2f6f9f"/>
<text x="680.0" y="249.7" font-family="monospace" font-size="11" fill="#2f6f9f">A 0.282</text>
<polyline points="64.0,205.5 74.7,205.7 85.3,205.9 96.0,206.1 106.7,206.3 117.3,206.5 128.0,206.7 138.7,206.8 149.3,207.0 160.0,207.2 170.7,207.4 181.3,207.6 192.0,207.8 202.7,207.9 213.3,208.1 224.0,208.3 234.7,208.5 245.3,208.6 256.0,208.8 266.7,209.0 277.3,209.1 288.0,209.3 298.7,209.5 309.3,209.6 320.0,209.8 330.7,209.9 341.3,210.1 352.0,210.3 362.7,210.4 373.3,210.6 384.0,210.7 394.7,210.9 405.3,211.0 416.0,211.2 426.7,211.3 437.3,211.5 448.0,211.6 458.7,211.8 469.3,211.9 480.0,212.1 490.7,212.2 501.3,212.3 512.0,212.5 522.7,212.6 533.3,212.7 544.0,212.9 554.7,213.0 565.3,213.2 576.0,213.3 586.7,213.4 597.3,213.5 608.0,213.7 618.7,213.8 629.3,213.9 640.0,214.1 650.7,214.2 661.3,214.3 672.0,214.4 682.7,214.6 693.3,214.7 704.0,214.8 714.7,214.9 725.3,215.0 736.0,215.2" fill="none" stroke="#b35f2a" stroke-width="2" stroke-linecap="round" stroke-linejoin="round"/>
<circle cx="736.0" cy="215.2" r="4" fill="#b35f2a"/>
<text x="680.0" y="219.2" font-family="monospace" font-size="11" fill="#b35f2a">B 0.586</text>
<polyline points="64.0,169.8 74.7,45.4 85.3,154.0 96.0,120.5 106.7,200.1 117.3,205.3 128.0,202.3 138.7,206.9 149.3,208.1 160.0,209.2 170.7,208.5 181.3,209.0 192.0,209.8 202.7,209.7 213.3,209.7 224.0,210.7 234.7,209.7 245.3,210.5 256.0,214.0 266.7,216.3 277.3,217.0 288.0,204.1 298.7,184.2 309.3,211.8 320.0,210.0 330.7,220.0 341.3,223.9 352.0,226.6 362.7,222.7 373.3,232.6 384.0,230.7 394.7,228.8 405.3,243.0 416.0,249.7 426.7,242.4 437.3,236.2 448.0,235.1 458.7,235.6 469.3,246.1 480.0,249.5 490.7,256.6 501.3,257.9 512.0,259.2 522.7,256.1 533.3,250.8 544.0,256.3 554.7,258.2 565.3,259.6 576.0,261.7 586.7,261.7 597.3,262.2 608.0,262.5 618.7,263.3 629.3,263.3 640.0,262.9 650.7,261.4 661.3,260.7 672.0,261.1 682.7,259.2 693.3,262.6 704.0,262.4 714.7,262.1 725.3,262.4 736.0,263.2" fill="none" stroke="#3f8f5e" stroke-width="3" stroke-linecap="round" stroke-linejoin="round"/>
<circle cx="736.0" cy="263.2" r="4" fill="#3f8f5e"/>
<text x="680.0" y="267.2" font-family="monospace" font-size="11" fill="#3f8f5e">C 0.108</text>
<rect x="64" y="304" width="18" height="3" fill="#2f6f9f"/>
<text x="88" y="308" font-family="monospace" font-size="10" fill="#344054">A c_6167ee</text>
<rect x="224" y="304" width="18" height="3" fill="#b35f2a"/>
<text x="248" y="308" font-family="monospace" font-size="10" fill="#344054">B c_a0ef35</text>
<rect x="384" y="304" width="18" height="3" fill="#3f8f5e"/>
<text x="408" y="308" font-family="monospace" font-size="10" fill="#344054">C c_aa502d winner</text>
</svg>