<svg xmlns="http://www.w3.org/2000/svg" viewBox="0 0 760 320" role="img">
<rect width="100%" height="100%" fill="#ffffff"/>
<text x="64" y="18" font-family="Arial, sans-serif" font-size="13" fill="#344054">q_094b12 · lower test_ce wins</text>
<line x1="64" y1="274.0" x2="736" y2="274.0" stroke="#e6e8ef" stroke-width="1"/>
<text x="56" y="278.0" text-anchor="end" font-family="monospace" font-size="10" fill="#667085">2.74</text>
<line x1="64" y1="212.5" x2="736" y2="212.5" stroke="#e6e8ef" stroke-width="1"/>
<text x="56" y="216.5" text-anchor="end" font-family="monospace" font-size="10" fill="#667085">4.55</text>
<line x1="64" y1="151.0" x2="736" y2="151.0" stroke="#e6e8ef" stroke-width="1"/>
<text x="56" y="155.0" text-anchor="end" font-family="monospace" font-size="10" fill="#667085">6.35</text>
<line x1="64" y1="89.5" x2="736" y2="89.5" stroke="#e6e8ef" stroke-width="1"/>
<text x="56" y="93.5" text-anchor="end" font-family="monospace" font-size="10" fill="#667085">8.15</text>
<line x1="64" y1="28.0" x2="736" y2="28.0" stroke="#e6e8ef" stroke-width="1"/>
<text x="56" y="32.0" text-anchor="end" font-family="monospace" font-size="10" fill="#667085">9.96</text>
<line x1="64.0" y1="28" x2="64.0" y2="274" stroke="#f1f3f7" stroke-width="1"/>
<text x="64.0" y="302" text-anchor="middle" font-family="monospace" font-size="10" fill="#667085">64</text>
<line x1="232.0" y1="28" x2="232.0" y2="274" stroke="#f1f3f7" stroke-width="1"/>
<text x="232.0" y="302" text-anchor="middle" font-family="monospace" font-size="10" fill="#667085">1328</text>
<line x1="400.0" y1="28" x2="400.0" y2="274" stroke="#f1f3f7" stroke-width="1"/>
<text x="400.0" y="302" text-anchor="middle" font-family="monospace" font-size="10" fill="#667085">2592</text>
<line x1="568.0" y1="28" x2="568.0" y2="274" stroke="#f1f3f7" stroke-width="1"/>
<text x="568.0" y="302" text-anchor="middle" font-family="monospace" font-size="10" fill="#667085">3856</text>
<line x1="736.0" y1="28" x2="736.0" y2="274" stroke="#f1f3f7" stroke-width="1"/>
<text x="736.0" y="302" text-anchor="middle" font-family="monospace" font-size="10" fill="#667085">5120</text>
<line x1="64" y1="274" x2="736" y2="274" stroke="#98a2b3" stroke-width="1"/>
<line x1="64" y1="28" x2="64" y2="274" stroke="#98a2b3" stroke-width="1"/>
<polyline points="64.0,244.5 72.5,244.8 81.0,245.2 89.5,245.5 98.0,245.8 106.5,246.1 115.0,246.4 123.5,246.7 132.1,247.0 140.6,247.3 149.1,247.6 157.6,247.8 166.1,248.1 174.6,248.3 183.1,248.5 191.6,248.8 200.1,249.0 208.6,249.2 217.1,249.4 225.6,249.7 234.1,249.9 242.6,250.1 251.1,250.3 259.6,250.5 268.2,250.7 276.7,250.8 285.2,251.0 293.7,251.2 302.2,251.4 310.7,251.6 319.2,251.7 327.7,251.9 336.2,252.1 344.7,252.2 353.2,252.4 361.7,252.5 370.2,252.7 378.7,252.8 387.2,253.0 395.7,253.1 404.3,253.3 412.8,253.4 421.3,253.5 429.8,253.7 438.3,253.8 446.8,253.9 455.3,254.1 463.8,254.2 472.3,254.3 480.8,254.4 489.3,254.5 497.8,254.7 506.3,254.8 514.8,254.9 523.3,255.0 531.8,255.1 540.4,255.2 548.9,255.3 557.4,255.4 565.9,255.5 574.4,255.6 582.9,255.7 591.4,255.8 599.9,255.9 608.4,256.0 616.9,256.0 625.4,256.1 633.9,256.2 642.4,256.3 650.9,256.4 659.4,256.4 667.9,256.5 676.5,256.6 685.0,256.7 693.5,256.7 702.0,256.8 710.5,256.9 719.0,256.9 727.5,257.0 736.0,257.0" fill="none" stroke="#2f6f9f" stroke-width="3" stroke-linecap="round" stroke-linejoin="round"/>
<circle cx="736.0" cy="257.0" r="4" fill="#2f6f9f"/>
<text x="680.0" y="261.0" font-family="monospace" font-size="11" fill="#2f6f9f">A 3.24</text>
<polyline points="64.0,213.4 72.5,120.2 81.0,113.0 89.5,45.0 98.0,85.4 106.5,124.0 115.0,141.6 123.5,180.2 132.1,205.6 140.6,213.4 149.1,226.8 157.6,236.0 166.1,242.3 174.6,245.8 183.1,247.4 191.6,247.9 200.1,248.6 208.6,248.9 217.1,248.9 225.6,248.9 234.1,249.0 242.6,249.0 251.1,248.9 259.6,249.1 268.2,249.2 276.7,249.2 285.2,249.0 293.7,249.0 302.2,249.3 310.7,249.2 319.2,249.3 327.7,249.2 336.2,249.2 344.7,249.1 353.2,249.1 361.7,249.3 370.2,249.3 378.7,249.2 387.2,249.3 395.7,249.2 404.3,249.3 412.8,249.3 421.3,249.3 429.8,249.2 438.3,249.3 446.8,249.2 455.3,249.2 463.8,249.3 472.3,249.2 480.8,249.3 489.3,249.3 497.8,249.2 506.3,249.4 514.8,249.3 523.3,249.3 531.8,249.2 540.4,249.3 548.9,249.2 557.4,249.2 565.9,249.2 574.4,249.4 582.9,249.3 591.4,249.5 599.9,249.4 608.4,249.5 616.9,249.3 625.4,249.2 633.9,249.3 642.4,249.4 650.9,249.3 659.4,249.3 667.9,249.2 676.5,249.3 685.0,249.2 693.5,249.5 702.0,249.3 710.5,249.4 719.0,249.5 727.5,249.3 736.0,249.3" fill="none" stroke="#b35f2a" stroke-width="2" stroke-linecap="round" stroke-linejoin="round"/>
<circle cx="736.0" cy="249.3" r="4" fill="#b35f2a"/>
<text x="680.0" y="253.3" font-family="monospace" font-size="11" fill="#b35f2a">B 3.47</text>
<polyline points="64.0,243.5 72.5,243.6 81.0,243.7 89.5,243.7 98.0,243.8 106.5,243.9 115.0,243.9 123.5,244.0 132.1,244.1 140.6,244.2 149.1,244.2 157.6,244.3 166.1,244.4 174.6,244.4 183.1,244.5 191.6,244.5 200.1,244.6 208.6,244.7 217.1,244.7 225.6,244.8 234.1,244.9 242.6,244.9 251.1,245.0 259.6,245.0 268.2,245.1 276.7,245.2 285.2,245.2 293.7,245.3 302.2,245.3 310.7,245.4 319.2,245.5 327.7,245.5 336.2,245.6 344.7,245.6 353.2,245.7 361.7,245.7 370.2,245.8 378.7,245.8 387.2,245.9 395.7,245.9 404.3,246.0 412.8,246.0 421.3,246.1 429.8,246.2 438.3,246.2 446.8,246.3 455.3,246.3 463.8,246.4 472.3,246.4 480.8,246.4 489.3,246.5 497.8,246.5 506.3,246.6 514.8,246.6 523.3,246.7 531.8,246.7 540.4,246.8 548.9,246.8 557.4,246.9 565.9,246.9 574.4,247.0 582.9,247.0 591.4,247.0 599.9,247.1 608.4,247.1 616.9,247.2 625.4,247.2 633.9,247.3 642.4,247.3 650.9,247.3 659.4,247.4 667.9,247.4 676.5,247.5 685.0,247.5 693.5,247.5 702.0,247.6 710.5,247.6 719.0,247.7 727.5,247.7 736.0,247.7" fill="none" stroke="#3f8f5e" stroke-width="2" stroke-linecap="round" stroke-linejoin="round"/>
<circle cx="736.0" cy="247.7" r="4" fill="#3f8f5e"/>
<text x="680.0" y="251.7" font-family="monospace" font-size="11" fill="#3f8f5e">C 3.51</text>
<rect x="64" y="304" width="18" height="3" fill="#2f6f9f"/>
<text x="88" y="308" font-family="monospace" font-size="10" fill="#344054">A c_1c667d winner</text>
<rect x="224" y="304" width="18" height="3" fill="#b35f2a"/>
<text x="248" y="308" font-family="monospace" font-size="10" fill="#344054">B c_2e1fc1</text>
<rect x="384" y="304" width="18" height="3" fill="#3f8f5e"/>
<text x="408" y="308" font-family="monospace" font-size="10" fill="#344054">C c_54a92a</text>
</svg>