<svg xmlns="http://www.w3.org/2000/svg" width="920" height="560" viewBox="0 0 920 560">
<rect width="100%" height="100%" fill="#ffffff"/>
<text x="80" y="28" font-family="Arial, sans-serif" font-size="18" fill="#111827">q_b24cf4 extended learning curves</text>
<line x1="80" y1="458.92" x2="730" y2="458.92" stroke="#e5e7eb"/>
<text x="70" y="462.92" text-anchor="end" font-family="Arial, sans-serif" font-size="12" fill="#374151">1e-3</text>
<line x1="80" y1="311.36" x2="730" y2="311.36" stroke="#e5e7eb"/>
<text x="70" y="315.36" text-anchor="end" font-family="Arial, sans-serif" font-size="12" fill="#374151">1e-2</text>
<line x1="80" y1="163.80" x2="730" y2="163.80" stroke="#e5e7eb"/>
<text x="70" y="167.80" text-anchor="end" font-family="Arial, sans-serif" font-size="12" fill="#374151">1e-1</text>
<line x1="208.37" y1="50" x2="208.37" y2="490" stroke="#f3f4f6"/>
<text x="208.37" y="514" text-anchor="middle" font-family="Arial, sans-serif" font-size="12" fill="#374151">2048</text>
<line x1="338.78" y1="50" x2="338.78" y2="490" stroke="#f3f4f6"/>
<text x="338.78" y="514" text-anchor="middle" font-family="Arial, sans-serif" font-size="12" fill="#374151">4096</text>
<line x1="469.18" y1="50" x2="469.18" y2="490" stroke="#f3f4f6"/>
<text x="469.18" y="514" text-anchor="middle" font-family="Arial, sans-serif" font-size="12" fill="#374151">6144</text>
<line x1="599.59" y1="50" x2="599.59" y2="490" stroke="#f3f4f6"/>
<text x="599.59" y="514" text-anchor="middle" font-family="Arial, sans-serif" font-size="12" fill="#374151">8192</text>
<line x1="730.00" y1="50" x2="730.00" y2="490" stroke="#f3f4f6"/>
<text x="730.00" y="514" text-anchor="middle" font-family="Arial, sans-serif" font-size="12" fill="#374151">10240</text>
<line x1="208.37" y1="50" x2="208.37" y2="490" stroke="#6b7280" stroke-dasharray="5 5"/>
<text x="214.37" y="64" font-family="Arial, sans-serif" font-size="12" fill="#6b7280">original 2048</text>
<rect x="80" y="50" width="650" height="440" fill="none" stroke="#9ca3af"/>
<polyline fill="none" stroke="#d97706" stroke-width="2.4" points="80.00,50.00 82.04,58.94 84.08,63.73 86.11,74.49 88.15,75.48 90.19,77.00 92.23,79.77 94.26,82.27 96.30,80.50 98.34,83.02 100.38,84.71 102.41,82.94 104.45,86.25 106.49,85.31 108.53,85.87 110.56,84.75 112.60,84.38 114.64,86.86 116.68,84.14 118.71,84.76 120.75,84.39 122.79,86.56 124.83,85.18 126.87,83.58 128.90,85.31 130.94,85.32 132.98,86.54 135.02,84.35 137.05,84.76 139.09,85.22 141.13,84.43 143.17,84.13 145.20,86.49 147.24,85.14 149.28,86.01 151.32,83.75 153.35,81.79 155.39,84.30 157.43,85.08 159.47,84.95 161.50,85.11 163.54,80.26 165.58,84.10 167.62,84.91 169.66,84.17 171.69,83.30 173.73,84.80 175.77,84.84 177.81,85.44 179.84,85.15 181.88,86.17 183.92,83.75 185.96,83.37 187.99,83.23 190.03,85.53 192.07,85.29 194.11,86.42 196.14,86.22 198.18,86.66 200.22,84.97 202.26,85.17 204.29,86.56 206.33,84.85 208.37,84.87 210.41,84.55 212.45,84.99 214.48,85.91 216.52,86.24 218.56,84.09 220.60,83.75 222.63,85.01 224.67,84.27 226.71,84.91 228.75,83.81 230.78,84.93 232.82,85.48 234.86,83.76 236.90,82.11 238.93,84.57 240.97,84.03 243.01,86.44 245.05,85.42 247.08,85.01 249.12,85.78 251.16,84.42 253.20,86.77 255.24,84.62 257.27,86.22 259.31,86.46 261.35,87.48 263.39,84.90 265.42,85.91 267.46,85.88 269.50,86.91 271.54,85.27 273.57,86.15 275.61,85.40 277.65,86.05 279.69,85.77 281.72,88.09 283.76,87.53 285.80,87.85 287.84,86.37 289.87,86.80 291.91,88.44 293.95,86.54 295.99,87.48 298.03,87.71 300.06,88.84 302.10,87.79 304.14,88.82 306.18,87.17 308.21,89.00 310.25,86.84 312.29,89.21 314.33,87.31 316.36,88.95 318.40,87.70 320.44,89.48 322.48,89.09 324.51,88.28 326.55,89.92 328.59,88.50 330.63,88.26 332.66,88.84 334.70,89.27 336.74,89.11 338.78,88.90 340.82,88.42 342.85,88.76 344.89,88.04 346.93,88.91 348.97,88.84 351.00,87.79 353.04,88.20 355.08,87.01 357.12,88.34 359.15,89.90 361.19,89.23 363.23,89.95 365.27,90.02 367.30,89.25 369.34,89.89 371.38,88.41 373.42,88.79 375.45,88.78 377.49,86.49 379.53,89.70 381.57,89.96 383.61,87.75 385.64,87.11 387.68,88.49 389.72,89.87 391.76,88.37 393.79,89.40 395.83,90.41 397.87,88.63 399.91,88.36 401.94,89.19 403.98,89.83 406.02,88.93 408.06,88.01 410.09,87.86 412.13,87.95 414.17,89.32 416.21,90.47 418.24,88.15 420.28,87.91 422.32,88.15 424.36,88.93 426.39,89.08 428.43,90.08 430.47,90.56 432.51,88.99 434.55,91.29 436.58,91.97 438.62,90.87 440.66,91.35 442.70,91.55 444.73,90.03 446.77,90.77 448.81,91.64 450.85,91.51 452.88,92.20 454.92,91.11 456.96,92.01 459.00,92.89 461.03,93.13 463.07,93.53 465.11,93.12 467.15,91.99 469.18,92.75 471.22,93.19 473.26,92.84 475.30,92.78 477.34,92.51 479.37,92.64 481.41,91.90 483.45,91.43 485.49,92.25 487.52,91.87 489.56,91.66 491.60,92.65 493.64,91.74 495.67,92.11 497.71,91.78 499.75,93.95 501.79,93.41 503.82,91.95 505.86,92.30 507.90,90.65 509.94,91.74 511.97,92.42 514.01,92.62 516.05,91.42 518.09,92.48 520.13,93.04 522.16,94.02 524.20,94.45 526.24,91.32 528.28,91.33 530.31,93.59 532.35,93.98 534.39,93.26 536.43,93.99 538.46,91.48 540.50,91.51 542.54,94.04 544.58,94.04 546.61,93.72 548.65,93.91 550.69,93.51 552.73,94.50 554.76,92.95 556.80,93.31 558.84,94.76 560.88,95.13 562.92,94.31 564.95,94.48 566.99,94.75 569.03,95.44 571.07,95.07 573.10,94.36 575.14,94.96 577.18,94.18 579.22,94.96 581.25,93.57 583.29,94.81 585.33,95.22 587.37,95.51 589.40,95.64 591.44,95.48 593.48,94.74 595.52,94.92 597.55,95.09 599.59,95.21 601.63,94.22 603.67,96.53 605.71,93.00 607.74,94.88 609.78,95.98 611.82,97.23 613.86,96.38 615.89,95.23 617.93,95.68 619.97,96.16 622.01,95.06 624.04,95.47 626.08,96.98 628.12,95.73 630.16,96.90 632.19,95.73 634.23,96.20 636.27,97.85 638.31,96.52 640.34,95.70 642.38,94.98 644.42,95.95 646.46,96.51 648.50,96.11 650.53,96.06 652.57,97.37 654.61,95.97 656.65,97.62 658.68,97.45 660.72,97.23 662.76,95.92 664.80,95.99 666.83,97.72 668.87,97.40 670.91,97.80 672.95,97.56 674.98,98.74 677.02,98.68 679.06,99.54 681.10,99.08 683.13,98.28 685.17,98.89 687.21,99.73 689.25,98.65 691.29,98.14 693.32,97.77 695.36,96.87 697.40,97.74 699.44,98.05 701.47,96.58 703.51,98.48 705.55,99.23 707.59,98.54 709.62,98.95 711.66,99.65 713.70,98.45 715.74,99.90 717.77,99.55 719.81,97.87 721.85,97.53 723.89,96.89 725.92,98.93 727.96,100.10 730.00,101.03"/>
<polyline fill="none" stroke="#2563eb" stroke-width="2.4" points="80.00,54.25 82.04,50.36 84.08,76.93 86.11,100.17 88.15,111.38 90.19,114.24 92.23,115.79 94.26,119.14 96.30,137.30 98.34,141.38 100.38,148.30 102.41,155.19 104.45,156.94 106.49,161.03 108.53,160.77 110.56,167.30 112.60,171.59 114.64,176.05 116.68,174.53 118.71,178.45 120.75,183.03 122.79,190.09 124.83,189.20 126.87,188.53 128.90,192.78 130.94,193.65 132.98,196.48 135.02,194.83 137.05,196.02 139.09,202.80 141.13,194.26 143.17,197.17 145.20,207.09 147.24,212.28 149.28,211.16 151.32,209.55 153.35,216.26 155.39,217.93 157.43,216.63 159.47,222.98 161.50,218.25 163.54,222.28 165.58,216.97 167.62,228.61 169.66,228.38 171.69,230.75 173.73,227.68 175.77,234.60 177.81,242.23 179.84,232.59 181.88,239.73 183.92,247.92 185.96,232.00 187.99,244.98 190.03,243.83 192.07,251.00 194.11,252.84 196.14,250.39 198.18,255.57 200.22,253.45 202.26,247.77 204.29,260.28 206.33,256.98 208.37,257.55 210.41,262.31 212.45,250.66 214.48,262.11 216.52,262.19 218.56,262.23 220.60,263.18 222.63,273.96 224.67,254.82 226.71,265.87 228.75,271.50 230.78,266.96 232.82,274.00 234.86,256.20 236.90,271.80 238.93,271.52 240.97,273.18 243.01,278.24 245.05,279.24 247.08,271.20 249.12,273.00 251.16,277.79 253.20,279.32 255.24,280.61 257.27,286.78 259.31,295.48 261.35,286.93 263.39,293.24 265.42,289.61 267.46,294.04 269.50,284.82 271.54,300.48 273.57,296.68 275.61,310.23 277.65,297.22 279.69,308.10 281.72,285.48 283.76,310.90 285.80,305.67 287.84,309.88 289.87,279.46 291.91,303.08 293.95,317.79 295.99,320.08 298.03,308.36 300.06,318.64 302.10,324.59 304.14,313.36 306.18,326.87 308.21,324.69 310.25,302.99 312.29,318.98 314.33,325.48 316.36,322.98 318.40,321.14 320.44,335.08 322.48,323.11 324.51,329.25 326.55,333.41 328.59,326.93 330.63,334.22 332.66,327.37 334.70,342.07 336.74,323.03 338.78,339.42 340.82,333.75 342.85,336.81 344.89,341.08 346.93,342.65 348.97,351.11 351.00,344.32 353.04,349.24 355.08,344.97 357.12,347.58 359.15,341.54 361.19,354.11 363.23,347.64 365.27,327.00 367.30,347.35 369.34,338.39 371.38,343.54 373.42,346.73 375.45,351.35 377.49,366.18 379.53,350.15 381.57,349.38 383.61,342.88 385.64,347.09 387.68,343.30 389.72,353.97 391.76,342.93 393.79,325.44 395.83,323.12 397.87,332.81 399.91,340.42 401.94,351.69 403.98,358.47 406.02,368.74 408.06,364.48 410.09,372.69 412.13,369.05 414.17,365.21 416.21,358.37 418.24,327.38 420.28,367.77 422.32,367.82 424.36,350.83 426.39,357.58 428.43,348.19 430.47,369.88 432.51,361.47 434.55,372.95 436.58,366.65 438.62,385.96 440.66,371.45 442.70,381.36 444.73,384.48 446.77,384.77 448.81,396.75 450.85,382.37 452.88,389.44 454.92,386.47 456.96,393.28 459.00,377.74 461.03,383.54 463.07,366.13 465.11,401.31 467.15,393.78 469.18,401.10 471.22,402.32 473.26,376.19 475.30,386.98 477.34,389.01 479.37,393.89 481.41,394.63 483.45,392.98 485.49,386.21 487.52,360.86 489.56,374.54 491.60,353.63 493.64,388.60 495.67,397.83 497.71,397.54 499.75,395.04 501.79,402.16 503.82,395.61 505.86,402.59 507.90,389.38 509.94,394.21 511.97,392.37 514.01,405.42 516.05,395.07 518.09,401.31 520.13,405.66 522.16,413.38 524.20,402.74 526.24,416.97 528.28,405.43 530.31,417.93 532.35,410.00 534.39,416.04 536.43,411.62 538.46,421.81 540.50,423.73 542.54,416.67 544.58,421.58 546.61,422.13 548.65,424.07 550.69,421.78 552.73,413.34 554.76,418.68 556.80,399.68 558.84,415.49 560.88,380.56 562.92,404.95 564.95,418.86 566.99,411.02 569.03,427.32 571.07,420.52 573.10,430.31 575.14,421.45 577.18,408.11 579.22,410.96 581.25,433.89 583.29,414.75 585.33,420.67 587.37,431.02 589.40,432.31 591.44,428.87 593.48,417.26 595.52,425.97 597.55,425.53 599.59,431.43 601.63,442.51 603.67,432.55 605.71,432.33 607.74,423.23 609.78,436.65 611.82,448.57 613.86,426.22 615.89,443.16 617.93,443.40 619.97,440.26 622.01,422.61 624.04,436.64 626.08,376.50 628.12,440.36 630.16,425.93 632.19,438.07 634.23,440.13 636.27,436.84 638.31,442.94 640.34,436.09 642.38,450.50 644.42,450.08 646.46,442.72 648.50,436.72 650.53,427.80 652.57,453.78 654.61,452.17 656.65,453.87 658.68,445.03 660.72,449.63 662.76,440.98 664.80,437.10 666.83,440.19 668.87,450.17 670.91,454.63 672.95,449.33 674.98,452.93 677.02,447.33 679.06,410.09 681.10,453.92 683.13,432.91 685.17,445.08 687.21,444.09 689.25,452.58 691.29,449.45 693.32,456.14 695.36,453.50 697.40,454.17 699.44,433.54 701.47,437.47 703.51,404.83 705.55,432.51 707.59,444.16 709.62,460.42 711.66,459.78 713.70,469.05 715.74,471.75 717.77,459.98 719.81,462.08 721.85,446.60 723.89,458.04 725.92,471.96 727.96,454.96 730.00,462.32"/>
<polyline fill="none" stroke="#16a34a" stroke-width="2.4" points="80.00,55.29 82.04,62.10 84.08,71.63 86.11,84.66 88.15,96.59 90.19,101.75 92.23,102.31 94.26,101.95 96.30,103.03 98.34,101.68 100.38,96.41 102.41,93.71 104.45,95.43 106.49,100.26 108.53,105.36 110.56,109.18 112.60,112.38 114.64,114.98 116.68,116.54 118.71,117.33 120.75,118.00 122.79,117.53 124.83,118.05 126.87,119.46 128.90,120.48 130.94,121.38 132.98,123.60 135.02,126.51 137.05,128.22 139.09,129.01 141.13,128.48 143.17,128.00 145.20,128.74 147.24,130.43 149.28,131.82 151.32,133.03 153.35,135.34 155.39,137.75 157.43,138.92 159.47,139.42 161.50,139.99 163.54,141.43 165.58,142.99 167.62,144.77 169.66,146.25 171.69,148.35 173.73,150.22 175.77,150.94 177.81,151.48 179.84,152.01 181.88,152.47 183.92,153.50 185.96,155.32 187.99,157.69 190.03,160.07 192.07,162.29 194.11,163.87 196.14,165.55 198.18,166.94 200.22,168.00 202.26,169.35 204.29,172.01 206.33,176.70 208.37,180.72 210.41,183.77 212.45,183.99 214.48,183.30 216.52,182.90 218.56,185.25 220.60,190.05 222.63,195.24 224.67,197.23 226.71,199.72 228.75,200.69 230.78,201.52 232.82,204.80 234.86,210.99 236.90,216.08 238.93,217.71 240.97,216.98 243.01,217.50 245.05,219.08 247.08,222.31 249.12,227.27 251.16,230.42 253.20,228.94 255.24,227.79 257.27,231.69 259.31,238.20 261.35,245.63 263.39,249.20 265.42,248.13 267.46,247.30 269.50,247.43 271.54,251.33 273.57,255.44 275.61,262.46 277.65,268.28 279.69,271.50 281.72,272.09 283.76,273.53 285.80,274.92 287.84,276.38 289.87,277.40 291.91,278.01 293.95,283.21 295.99,286.09 298.03,290.46 300.06,293.68 302.10,295.22 304.14,297.54 306.18,297.38 308.21,296.77 310.25,297.12 312.29,298.73 314.33,304.13 316.36,308.12 318.40,307.28 320.44,310.40 322.48,317.64 324.51,324.20 326.55,325.78 328.59,325.45 330.63,323.25 332.66,319.06 334.70,321.43 336.74,326.65 338.78,327.72 340.82,332.60 342.85,338.54 344.89,337.82 346.93,337.45 348.97,344.62 351.00,343.52 353.04,337.86 355.08,345.64 357.12,344.27 359.15,343.34 361.19,353.31 363.23,356.11 365.27,361.75 367.30,360.06 369.34,357.71 371.38,355.23 373.42,358.01 375.45,366.63 377.49,368.33 379.53,369.13 381.57,361.14 383.61,355.05 385.64,370.29 387.68,380.46 389.72,378.34 391.76,375.89 393.79,372.05 395.83,374.02 397.87,381.34 399.91,381.07 401.94,377.38 403.98,380.85 406.02,375.02 408.06,372.03 410.09,382.76 412.13,386.22 414.17,389.81 416.21,390.80 418.24,379.28 420.28,375.45 422.32,384.29 424.36,384.74 426.39,387.35 428.43,394.72 430.47,394.92 432.51,397.75 434.55,394.88 436.58,390.46 438.62,397.21 440.66,398.77 442.70,391.55 444.73,403.24 446.77,408.90 448.81,405.32 450.85,402.54 452.88,396.30 454.92,394.43 456.96,395.63 459.00,401.59 461.03,403.82 463.07,402.98 465.11,403.61 467.15,404.92 469.18,402.19 471.22,401.19 473.26,406.53 475.30,407.40 477.34,405.05 479.37,410.44 481.41,412.29 483.45,417.62 485.49,411.88 487.52,413.41 489.56,411.61 491.60,414.21 493.64,422.58 495.67,420.74 497.71,422.46 499.75,421.31 501.79,420.51 503.82,429.85 505.86,429.35 507.90,431.04 509.94,431.95 511.97,423.43 514.01,425.58 516.05,430.85 518.09,434.49 520.13,435.98 522.16,441.18 524.20,434.75 526.24,438.62 528.28,436.42 530.31,434.43 532.35,442.32 534.39,444.20 536.43,441.98 538.46,433.02 540.50,432.03 542.54,436.82 544.58,436.78 546.61,447.11 548.65,443.72 550.69,445.28 552.73,437.92 554.76,440.36 556.80,442.06 558.84,443.73 560.88,446.92 562.92,437.27 564.95,436.49 566.99,437.07 569.03,447.66 571.07,438.63 573.10,433.84 575.14,439.63 577.18,437.75 579.22,444.75 581.25,447.79 583.29,444.41 585.33,446.74 587.37,448.61 589.40,440.84 591.44,447.95 593.48,452.98 595.52,455.32 597.55,450.57 599.59,439.38 601.63,442.76 603.67,433.09 605.71,452.57 607.74,448.42 609.78,454.22 611.82,458.82 613.86,457.65 615.89,458.20 617.93,450.21 619.97,448.32 622.01,459.07 624.04,464.75 626.08,465.31 628.12,473.02 630.16,472.04 632.19,465.18 634.23,451.39 636.27,457.01 638.31,466.50 640.34,474.69 642.38,470.68 644.42,459.35 646.46,455.40 648.50,451.01 650.53,458.73 652.57,454.51 654.61,470.57 656.65,460.38 658.68,456.89 660.72,463.31 662.76,460.47 664.80,454.16 666.83,452.57 668.87,467.62 670.91,472.50 672.95,468.41 674.98,458.34 677.02,461.89 679.06,458.83 681.10,471.56 683.13,468.26 685.17,473.71 687.21,476.75 689.25,476.56 691.29,468.98 693.32,463.51 695.36,459.63 697.40,465.74 699.44,475.79 701.47,480.16 703.51,479.09 705.55,477.37 707.59,483.20 709.62,474.32 711.66,473.92 713.70,490.00 715.74,488.53 717.77,481.02 719.81,476.71 721.85,470.71 723.89,475.17 725.92,479.91 727.96,482.34 730.00,481.88"/>
<text x="405.0" y="542" text-anchor="middle" font-family="Arial, sans-serif" font-size="13" fill="#111827">samples seen</text>
<text transform="translate(20 270.0) rotate(-90)" text-anchor="middle" font-family="Arial, sans-serif" font-size="13" fill="#111827">mean test MSE (log scale)</text>
<line x1="760" y1="70" x2="784" y2="70" stroke="#d97706" stroke-width="3"/>
<text x="792" y="74" font-family="Arial, sans-serif" font-size="13" fill="#111827">A c_e5228f</text>
<line x1="760" y1="98" x2="784" y2="98" stroke="#2563eb" stroke-width="3"/>
<text x="792" y="102" font-family="Arial, sans-serif" font-size="13" fill="#111827">B c_428635</text>
<line x1="760" y1="126" x2="784" y2="126" stroke="#16a34a" stroke-width="3"/>
<text x="792" y="130" font-family="Arial, sans-serif" font-size="13" fill="#111827">C c_a62e84</text>
</svg>